<svg width="24" height="25" viewBox="0 0 24 25" fill="none" xmlns="http://www.w3.org/2000/svg">
<path d="M8.97 7.29391L9.57 6.49391C9.73053 6.27987 9.98246 6.15391 10.25 6.15391H14.0729C14.3949 6.15391 14.6892 6.33581 14.8332 6.62377L15.004 6.96542L15.5712 6.68182L15.004 6.96542C15.3682 7.6938 16.1127 8.15391 16.9271 8.15391H19.5C19.9694 8.15391 20.35 8.53446 20.35 9.00391V18.0039C20.35 18.4733 19.9694 18.8539 19.5 18.8539H4.5C4.03056 18.8539 3.65 18.4733 3.65 18.0039V9.00391C3.65 8.53446 4.03056 8.15391 4.5 8.15391H7.25C7.92673 8.15391 8.56396 7.83529 8.97 7.29391Z" stroke="#F0F0F0" stroke-width="1.3"/>
<circle cx="12" cy="13.0293" r="3.35" stroke="#F0F0F0" stroke-width="1.3"/>
<circle cx="12" cy="13.0293" r="3.35" stroke="#F0F0F0" stroke-width="1.3"/>
<circle cx="17.6748" cy="10.5049" r="0.65" stroke="#F0F0F0" stroke-width="0.698047"/>
</svg>
