<svg width="20" height="14" viewBox="0 0 20 14" fill="none" xmlns="http://www.w3.org/2000/svg">
<path fill-rule="evenodd" clip-rule="evenodd" d="M19.5301 2.03295C19.5301 1.3999 19.0525 0.886719 18.4634 0.886719H17.3967C16.8076 0.886719 16.3301 1.3999 16.3301 2.03295V11.9669C16.3301 12.5999 16.8076 13.1131 17.3967 13.1131H18.4634C19.0525 13.1131 19.5301 12.5999 19.5301 11.9669V2.03295ZM12.096 3.332H13.1626C13.7517 3.332 14.2293 3.8575 14.2293 4.50574V11.9394C14.2293 12.5876 13.7517 13.1131 13.1626 13.1131H12.096C11.5069 13.1131 11.0293 12.5876 11.0293 11.9394V4.50574C11.0293 3.8575 11.5069 3.332 12.096 3.332ZM7.76419 5.98105H6.69753C6.10842 5.98105 5.63086 6.51324 5.63086 7.16973V11.9244C5.63086 12.5809 6.10842 13.1131 6.69753 13.1131H7.76419C8.3533 13.1131 8.83086 12.5809 8.83086 11.9244V7.16973C8.83086 6.51324 8.3533 5.98105 7.76419 5.98105ZM2.46341 8.42634H1.39674C0.807641 8.42634 0.330078 8.95093 0.330078 9.59804V11.9414C0.330078 12.5885 0.807641 13.1131 1.39674 13.1131H2.46341C3.05252 13.1131 3.53008 12.5885 3.53008 11.9414V9.59804C3.53008 8.95093 3.05252 8.42634 2.46341 8.42634Z" fill="white"/>
</svg>
