<svg width="171" height="990" viewBox="0 0 171 990" fill="none" xmlns="http://www.w3.org/2000/svg">
<path d="M2.18436 810.348L169.037 810.348L169.037 853.213L54.9596 899.305L54.9596 900.227L169.037 946.319L169.037 989.184L2.18435 989.184L2.18435 955.768L105.43 955.768L105.43 955.076L2.18435 913.824L2.18435 885.708L105.43 844.686L105.43 843.764L2.18436 843.764L2.18436 810.348Z" fill="white"/>
<path d="M2.18435 752.966L38.8274 740.521L38.8274 676.223L2.18436 663.547L2.18436 625.982L169.037 690.281L169.037 726.232L2.18435 790.531L2.18435 752.966ZM70.6309 687.054L70.6309 729.689L131.242 708.717L131.242 707.796L70.6309 687.054Z" fill="white"/>
<path d="M0.572202 553.621C0.572203 524.237 18.6633 503.496 48.7383 497.389L55.1911 530.805C39.7503 534.147 32.8365 542.213 32.8365 553.621C32.8365 568.14 44.3595 577.243 63.7181 577.358L170.651 577.358L170.651 611.697L63.7181 611.697C25.8075 611.581 0.572201 588.075 0.572202 553.621Z" fill="white"/>
<path d="M2.18436 330.996L169.037 330.996L169.037 369.713L56.3424 442.539L56.3424 443.46L169.037 443.46L169.037 477.568L2.18435 477.568L2.18435 439.312L115.57 366.487L115.57 365.104L2.18436 365.104L2.18436 330.996Z" fill="white"/>
<path d="M2.18435 273.608L38.8274 261.163L38.8274 196.865L2.18436 184.19L2.18436 146.625L169.037 210.923L169.037 246.875L2.18435 311.173L2.18435 273.608ZM70.6309 207.697L70.6309 250.332L131.242 229.36L131.242 228.438L70.6309 207.697Z" fill="white"/>
<path d="M2.18436 0.746086L169.037 0.746094L169.037 51.6777C169.037 106.758 135.966 143.17 85.6107 143.401C35.2553 143.17 2.18435 106.758 2.18435 51.6777L2.18436 0.746086ZM34.2182 34.8541L34.2182 51.6777C34.2182 87.5141 53.2312 108.832 85.6107 109.062C117.99 108.832 137.003 87.5141 137.003 51.6777L137.003 34.8541L34.2182 34.8541Z" fill="white"/>
</svg>
