<svg width="17" height="17" viewBox="0 0 17 17" fill="none" xmlns="http://www.w3.org/2000/svg">
<path d="M10.6689 4.87071C10.6689 6.21816 9.57656 7.31049 8.22911 7.31049C6.88166 7.31049 5.78934 6.21816 5.78934 4.87071C5.78934 3.52326 6.88166 2.43094 8.22911 2.43094C9.57656 2.43094 10.6689 3.52326 10.6689 4.87071Z" stroke="#C9C9C9" stroke-width="0.8775"/>
<path d="M3.50371 14.0601C3.16423 14.0601 2.96616 13.798 3.00407 13.5593C3.07077 13.1396 3.18209 12.7284 3.33637 12.3338C3.60449 11.6481 3.99687 11.0267 4.48996 10.5043C4.983 9.98206 5.56693 9.5692 6.20773 9.28803C6.84845 9.0069 7.5342 8.86258 8.22607 8.86258C8.91794 8.86258 9.6037 9.0069 10.2444 9.28803C10.8852 9.5692 11.4692 9.98206 11.9622 10.5043C12.4553 11.0267 12.8477 11.6481 13.1158 12.3338C13.2701 12.7284 13.3814 13.1396 13.4481 13.5593C13.486 13.798 13.2879 14.0601 12.9484 14.0601L3.50371 14.0601Z" stroke="#C9C9C9" stroke-width="0.8775" stroke-linejoin="round"/>
</svg>
