<svg width="33" height="32" viewBox="0 0 33 32" fill="none" xmlns="http://www.w3.org/2000/svg">
<mask id="path-1-inside-1_2306_7644" fill="white">
<path fill-rule="evenodd" clip-rule="evenodd" d="M18.1705 3.5621C17.1963 2.78157 15.8109 2.78136 14.8365 3.56161L6.16693 10.5032C5.53487 11.0093 5.16699 11.7752 5.16699 12.5848V24.0112C5.16699 25.4839 6.3609 26.6778 7.83365 26.6778H13.1557C13.162 26.6778 13.167 26.6727 13.167 26.6664L13.1672 18.6664C13.1673 17.9301 13.7642 17.3331 14.5006 17.3331H18.5003C19.2367 17.3331 19.8336 17.9301 19.8336 18.6665L19.8334 26.6665C19.8334 26.6727 19.8384 26.6778 19.8447 26.6778H25.167C26.6397 26.6778 27.8337 25.4839 27.8337 24.0112V12.5844C27.8337 11.7749 27.466 11.0093 26.8343 10.5032L18.1705 3.5621Z"/>
</mask>
<path d="M14.8365 3.56161L15.8542 4.83262V4.83262L14.8365 3.56161ZM18.1705 3.5621L19.1886 2.29138V2.29138L18.1705 3.5621ZM6.16693 10.5032L7.18461 11.7742L6.16693 10.5032ZM13.1672 18.6664L14.7955 18.6665V18.6665L13.1672 18.6664ZM19.8336 18.6665L18.2054 18.6665L19.8336 18.6665ZM26.8343 10.5032L27.8524 9.23253V9.23253L26.8343 10.5032ZM15.8542 4.83262C16.2336 4.52879 16.7731 4.52886 17.1525 4.83281L19.1886 2.29138C17.6195 1.03427 15.3883 1.03394 13.8188 2.2906L15.8542 4.83262ZM7.18461 11.7742L15.8542 4.83262L13.8188 2.2906L5.14924 9.23222L7.18461 11.7742ZM6.79523 12.5848C6.79523 12.2695 6.93849 11.9713 7.18461 11.7742L5.14924 9.23222C4.13126 10.0473 3.53876 11.2808 3.53876 12.5848H6.79523ZM6.79523 24.0112V12.5848H3.53876V24.0112H6.79523ZM7.83365 25.0496C7.26015 25.0496 6.79523 24.5847 6.79523 24.0112H3.53876C3.53876 26.3832 5.46164 28.3061 7.83365 28.3061V25.0496ZM13.1557 25.0496H7.83365V28.3061H13.1557V25.0496ZM14.7953 26.6665L14.7955 18.6665L11.539 18.6664L11.5388 26.6664L14.7953 26.6665ZM14.7955 18.6665C14.7955 18.8293 14.6634 18.9614 14.5006 18.9614V15.7049C12.865 15.7049 11.539 17.0308 11.539 18.6664L14.7955 18.6665ZM14.5006 18.9614H18.5003V15.7049H14.5006V18.9614ZM18.5003 18.9614C18.3374 18.9614 18.2054 18.8293 18.2054 18.6665L21.4619 18.6666C21.4619 17.0309 20.1359 15.7049 18.5003 15.7049V18.9614ZM18.2054 18.6665L18.2052 26.6665L21.4616 26.6665L21.4619 18.6666L18.2054 18.6665ZM25.167 25.0496H19.8447V28.3061H25.167V25.0496ZM26.2054 24.0112C26.2054 24.5847 25.7405 25.0496 25.167 25.0496V28.3061C27.539 28.3061 29.4619 26.3832 29.4619 24.0112H26.2054ZM26.2054 12.5844V24.0112H29.4619V12.5844H26.2054ZM25.8163 11.774C26.0623 11.971 26.2054 12.2692 26.2054 12.5844H29.4619C29.4619 11.2807 28.8698 10.0476 27.8524 9.23253L25.8163 11.774ZM17.1525 4.83281L25.8163 11.774L27.8524 9.23253L19.1886 2.29138L17.1525 4.83281ZM18.2052 26.6665C18.2052 27.563 18.9302 28.3061 19.8447 28.3061V25.0496C20.7466 25.0496 21.4616 25.7825 21.4616 26.6665H18.2052ZM13.1557 28.3061C14.0701 28.3061 14.7953 27.5631 14.7953 26.6664H11.5388C11.5388 25.7823 12.2538 25.0496 13.1557 25.0496V28.3061Z" fill="#BBFFBA" mask="url(#path-1-inside-1_2306_7644)"/>
</svg>
