<svg width="32" height="32" viewBox="0 0 32 32" fill="none" xmlns="http://www.w3.org/2000/svg">
<circle cx="16" cy="16" r="11.1333" stroke="#AEAEAE" stroke-width="1.73333"/>
<path d="M19.9316 16C19.9316 19.2317 19.406 22.1175 18.5877 24.1634C18.1775 25.1888 17.7108 25.9604 17.2369 26.4615C16.7648 26.9608 16.3459 27.1333 15.9982 27.1333C15.6506 27.1333 15.2317 26.9608 14.7595 26.4615C14.2857 25.9604 13.819 25.1888 13.4088 24.1634C12.5904 22.1175 12.0649 19.2317 12.0649 16C12.0649 12.7683 12.5904 9.8825 13.4088 7.83659C13.819 6.81123 14.2857 6.03962 14.7595 5.53851C15.2317 5.03924 15.6506 4.86667 15.9982 4.86667C16.3459 4.86667 16.7648 5.03924 17.2369 5.53851C17.7108 6.03962 18.1775 6.81123 18.5877 7.83659C19.406 9.8825 19.9316 12.7683 19.9316 16Z" stroke="#AEAEAE" stroke-width="1.73333"/>
<path d="M5.85449 12.4004L26.3729 12.4004" stroke="#AEAEAE" stroke-width="1.73333" stroke-linecap="round" stroke-linejoin="round"/>
<path d="M5.85449 19.5996L26.3729 19.5996" stroke="#AEAEAE" stroke-width="1.73333" stroke-linecap="round" stroke-linejoin="round"/>
</svg>
