<svg width="17" height="17" viewBox="0 0 17 17" fill="none" xmlns="http://www.w3.org/2000/svg">
<path d="M10.6298 5.12071C10.6298 6.46816 9.5375 7.56049 8.19005 7.56049C6.8426 7.56049 5.75027 6.46816 5.75027 5.12071C5.75027 3.77326 6.8426 2.68094 8.19005 2.68094C9.5375 2.68094 10.6298 3.77326 10.6298 5.12071Z" stroke="#C9C9C9" stroke-width="0.8775"/>
<path d="M3.46465 14.3101C3.12517 14.3101 2.92709 14.048 2.96501 13.8093C3.03171 13.3896 3.14303 12.9784 3.29731 12.5838C3.56543 11.8981 3.95781 11.2767 4.4509 10.7543C4.94393 10.2321 5.52787 9.8192 6.16867 9.53803C6.80939 9.2569 7.49514 9.11258 8.18701 9.11258C8.87888 9.11258 9.56464 9.2569 10.2054 9.53803C10.8462 9.8192 11.4301 10.2321 11.9231 10.7543C12.4162 11.2767 12.8086 11.8981 13.0767 12.5838C13.231 12.9784 13.3423 13.3896 13.409 13.8093C13.4469 14.048 13.2488 14.3101 12.9094 14.3101L3.46465 14.3101Z" stroke="#C9C9C9" stroke-width="0.8775" stroke-linejoin="round"/>
</svg>
