<svg width="32" height="32" viewBox="0 0 32 32" fill="none" xmlns="http://www.w3.org/2000/svg">
<mask id="path-1-inside-1_2306_7569" fill="white">
<path fill-rule="evenodd" clip-rule="evenodd" d="M5.92654 20.1787C4.71184 19.7095 3.20629 20.7382 3.84527 21.8728C6.54617 26.6689 12.0698 29.472 17.7961 28.4562C25.044 27.1704 29.8826 20.2516 28.5968 13.0038C27.7807 8.40336 24.6934 4.77612 20.6935 3.06886C19.4947 2.55719 18.6396 4.16664 19.2387 5.3242C19.7213 6.2566 20.0731 7.27663 20.2661 8.36471C21.2947 14.163 17.4238 19.698 11.6255 20.7266C9.63833 21.0791 7.68163 20.8568 5.92654 20.1787Z"/>
</mask>
<path d="M20.6935 3.06886L20.013 4.66305L20.6935 3.06886ZM19.2387 5.3242L20.7781 4.52749L19.2387 5.3242ZM17.4933 26.7495C12.514 27.6328 7.70638 25.1967 5.35558 21.0223L2.33495 22.7234C5.38596 28.1411 11.6256 31.3112 18.0989 30.1629L17.4933 26.7495ZM26.8901 13.3065C28.0085 19.6109 23.7995 25.6308 17.4933 26.7495L18.0989 30.1629C26.2884 28.7101 31.7566 20.8924 30.3035 12.701L26.8901 13.3065ZM20.013 4.66305C23.4982 6.15059 26.1806 9.30675 26.8901 13.3065L30.3035 12.701C29.3809 7.49997 25.8886 3.40165 21.3739 1.47466L20.013 4.66305ZM17.6993 6.12091C18.1025 6.89985 18.3973 7.75352 18.5594 8.66746L21.9728 8.06195C21.7489 6.79974 21.3401 5.61336 20.7781 4.52749L17.6993 6.12091ZM18.5594 8.66746C19.4207 13.5223 16.1794 18.1584 11.3228 19.0199L11.9283 22.4333C18.6683 21.2377 23.1688 14.8037 21.9728 8.06195L18.5594 8.66746ZM11.3228 19.0199C9.65586 19.3156 8.01953 19.1291 6.55117 18.5619L5.3019 21.7956C7.34373 22.5844 9.62081 22.8427 11.9283 22.4333L11.3228 19.0199ZM21.3739 1.47466C20.6743 1.17604 19.9164 1.15604 19.2251 1.4362C18.5676 1.7027 18.1001 2.186 17.804 2.68133C17.2313 3.63965 17.1032 4.96906 17.6993 6.12091L20.7781 4.52749C20.7817 4.53448 20.7746 4.52475 20.776 4.49446C20.7777 4.45928 20.7887 4.44478 20.7797 4.4598C20.7724 4.47204 20.706 4.57656 20.5272 4.64902C20.4354 4.68627 20.332 4.70643 20.2281 4.70438C20.1249 4.70235 20.0507 4.67915 20.013 4.66305L21.3739 1.47466ZM5.35558 21.0223C5.37592 21.0584 5.40709 21.1298 5.42036 21.2321C5.43372 21.3352 5.42494 21.4398 5.3981 21.5348C5.3459 21.7195 5.24994 21.7965 5.23881 21.8049C5.22509 21.8153 5.23812 21.803 5.27213 21.7976C5.3013 21.7929 5.31053 21.7989 5.3019 21.7956L6.55117 18.5619C5.33956 18.0938 4.03162 18.369 3.14273 19.0437C2.68326 19.3925 2.2548 19.9101 2.06207 20.5921C1.85944 21.3092 1.9615 22.0602 2.33495 22.7234L5.35558 21.0223Z" fill="#AEAEAE" mask="url(#path-1-inside-1_2306_7569)"/>
</svg>
