<svg width="24" height="25" viewBox="0 0 24 25" fill="none" xmlns="http://www.w3.org/2000/svg">
<circle cx="12" cy="12.5039" r="9.35" stroke="#F0F0F0" stroke-width="1.3"/>
<path d="M14.4873 10.1709C14.4873 9.50707 14.2236 8.87044 13.7542 8.40105C13.2848 7.93167 12.6482 7.66797 11.9844 7.66797C11.3205 7.66797 10.6839 7.93167 10.2145 8.40105C9.74514 8.87044 9.48145 9.50707 9.48145 10.1709" stroke="#F0F0F0" stroke-width="1.3" stroke-linecap="round"/>
<path d="M14.4883 10.2559C14.4883 10.4772 14.4888 10.6246 14.3909 10.9786C14.3262 11.1832 14.2417 11.3668 14.1223 11.5233C14.0028 11.6799 13.8909 11.8095 13.6819 11.9588C13.473 12.108 13.277 12.1956 13.082 12.3073C12.8869 12.419 12.6819 12.5691 12.5365 12.7509C12.3452 12.99 12.2608 13.1116 12.151 13.5001C12.0154 13.9798 12.0372 14.3908 12.0372 14.3908" stroke="#F0F0F0" stroke-width="1.3" stroke-linecap="round"/>
<circle cx="12.0684" cy="16.7754" r="0.6875" fill="#F0F0F0"/>
</svg>
