<svg width="32" height="33" viewBox="0 0 32 33" fill="none" xmlns="http://www.w3.org/2000/svg">
<mask id="path-1-inside-1_2306_7591" fill="white">
<path fill-rule="evenodd" clip-rule="evenodd" d="M26.3823 22.6343C26.4555 22.1951 26.6781 21.7976 26.9855 21.4755C28.4665 19.924 29.3337 18.0433 29.3337 16.0163C29.3337 10.6981 23.3641 6.38672 16.0003 6.38672C8.63653 6.38672 2.66699 10.6981 2.66699 16.0163C2.66699 21.3346 8.63653 25.646 16.0003 25.646C17.0902 25.646 18.1495 25.5515 19.1634 25.3734C20.0045 25.2256 20.8754 25.5459 21.3491 26.2564L22.0872 27.3636C23.093 28.8722 25.4261 28.3715 25.7241 26.583L26.3823 22.6343Z"/>
</mask>
<path d="M19.1634 25.3734L18.8635 23.6662L19.1634 25.3734ZM22.0872 27.3636L20.645 28.3251L22.0872 27.3636ZM25.7241 26.583L24.0144 26.2981L25.7241 26.583ZM26.9855 21.4755L25.7317 20.2787L26.9855 21.4755ZM26.3823 22.6343L28.092 22.9192L26.3823 22.6343ZM27.6003 16.0163C27.6003 17.5215 26.9617 18.9901 25.7317 20.2787L28.2393 22.6723C29.9713 20.8579 31.067 18.5651 31.067 16.0163H27.6003ZM16.0003 8.12005C19.3584 8.12005 22.3273 9.10562 24.4136 10.6123C26.5021 12.1207 27.6003 14.0537 27.6003 16.0163H31.067C31.067 12.6607 29.1804 9.77884 26.4433 7.80199C23.7038 5.82349 20.0061 4.65339 16.0003 4.65339V8.12005ZM4.40033 16.0163C4.40033 14.0537 5.49854 12.1207 7.58709 10.6123C9.67333 9.10562 12.6423 8.12005 16.0003 8.12005V4.65339C11.9946 4.65339 8.29686 5.82349 5.55738 7.80199C2.82021 9.77884 0.933659 12.6607 0.933659 16.0163H4.40033ZM16.0003 23.9126C12.6423 23.9126 9.67333 22.9271 7.58709 21.4203C5.49854 19.912 4.40033 17.979 4.40033 16.0163H0.933659C0.933659 19.372 2.82021 22.2539 5.55738 24.2307C8.29686 26.2092 11.9946 27.3793 16.0003 27.3793V23.9126ZM18.8635 23.6662C17.9492 23.8269 16.9902 23.9126 16.0003 23.9126V27.3793C17.1901 27.3793 18.3498 27.2762 19.4634 27.0806L18.8635 23.6662ZM23.5295 26.4022L22.7913 25.2949L19.9069 27.2179L20.645 28.3251L23.5295 26.4022ZM24.6725 22.3493L24.0144 26.2981L27.4339 26.868L28.092 22.9192L24.6725 22.3493ZM19.4634 27.0806C19.7089 27.0374 19.8586 27.1454 19.9069 27.2179L22.7913 25.2949C21.8923 23.9464 20.3001 23.4138 18.8635 23.6662L19.4634 27.0806ZM20.645 28.3251C22.5224 31.1411 26.8775 30.2064 27.4339 26.868L24.0144 26.2981C24.0002 26.3835 23.971 26.421 23.9492 26.4427C23.9201 26.4716 23.8719 26.5011 23.8073 26.515C23.7427 26.5288 23.6867 26.5217 23.6482 26.5073C23.6194 26.4964 23.5775 26.4742 23.5295 26.4022L20.645 28.3251ZM25.7317 20.2787C25.2264 20.8081 24.8121 21.5118 24.6725 22.3493L28.092 22.9192C28.0988 22.8784 28.1298 22.7871 28.2393 22.6723L25.7317 20.2787Z" fill="#AEAEAE" mask="url(#path-1-inside-1_2306_7591)"/>
<circle cx="10.0752" cy="15.8409" r="1.48148" fill="#AEAEAE"/>
<circle cx="16.002" cy="15.8409" r="1.48148" fill="#AEAEAE"/>
<circle cx="21.9297" cy="15.8409" r="1.48148" fill="#AEAEAE"/>
</svg>
