<svg width="20" height="23" viewBox="0 0 20 23" fill="none" xmlns="http://www.w3.org/2000/svg">
<path d="M14.1348 5.73077C14.1348 8.01421 12.2837 9.8653 10.0003 9.8653C7.71687 9.8653 5.86578 8.01421 5.86578 5.73077C5.86578 3.44734 7.71687 1.59625 10.0003 1.59625C12.2837 1.59625 14.1348 3.44734 14.1348 5.73077Z" stroke="#AEAEAE" stroke-width="1.63"/>
<path d="M2.66497 21.6785C1.96197 21.6785 1.5489 21.1349 1.63458 20.6378C1.74536 19.9952 1.91356 19.3659 2.1371 18.7599C2.57288 17.5785 3.20956 16.5107 4.00681 15.6155C4.80389 14.7204 5.74499 14.0162 6.77355 13.5377C7.80175 13.0595 8.8998 12.815 10.0059 12.815C11.1121 12.815 12.2101 13.0595 13.2383 13.5377C14.2669 14.0162 15.208 14.7204 16.0051 15.6155C16.8023 16.5107 17.439 17.5785 17.8748 18.7599C18.0983 19.3659 18.2665 19.9952 18.3773 20.6378C18.463 21.1349 18.0499 21.6785 17.3469 21.6785L2.66497 21.6785Z" stroke="#AEAEAE" stroke-width="1.63" stroke-linejoin="round"/>
</svg>
