<svg width="158" height="90" viewBox="0 0 158 90" fill="none" xmlns="http://www.w3.org/2000/svg">
<path d="M114.031 13.1862C105.378 4.10619 91.0017 3.7614 81.9214 12.4172C72.8412 21.0729 72.4965 35.4489 81.1522 44.5291C72.0701 53.1825 71.7253 67.5585 80.3811 76.6387C89.0347 85.7187 103.413 86.0637 112.493 77.4079C121.147 86.4879 135.525 86.8329 144.605 78.1772C153.685 69.5235 154.03 55.1454 145.374 46.0652C154.454 37.4116 154.799 23.0335 146.143 13.9533C137.49 4.8733 123.112 4.52829 114.031 13.1841L114.031 13.1862Z" fill="#282828"/>
<path opacity="0.2" fill-rule="evenodd" clip-rule="evenodd" d="M55.9263 2.62891L52.6098 2.62891L52.6098 16.3141L47.2163 10.9206L44.8711 13.2657L50.2646 18.6592L36.58 18.6592L36.58 21.9757L50.5973 21.9757L45.0054 27.5677L47.3505 29.9128L52.6098 24.6535L52.6098 38.0052L55.9263 38.0052L55.9263 24.3209L61.5189 29.9135L63.8641 27.5684L58.2714 21.9757L71.9563 21.9757L71.9563 18.6592L58.6041 18.6592L63.9983 13.2651L61.6531 10.9199L55.9263 16.6467L55.9263 2.62891ZM23.7842 24.4567L28.3003 24.4567L28.3003 43.5452L36.0985 35.747L39.2919 38.9404L31.9473 46.285L50.1281 46.285L50.1281 50.8011L31.4943 50.8011L39.1091 58.4158L35.9157 61.6092L28.3003 53.9939L28.3003 72.6287L23.7842 72.6287L23.7842 54.4481L16.6226 61.6097L13.4292 58.4163L21.0444 50.8011L1.95605 50.8011L1.95605 46.285L20.5914 46.285L13.2464 38.9399L16.4397 35.7465L23.7842 43.091L23.7842 24.4567Z" fill="#FBF9F5"/>
</svg>
