<svg width="17" height="17" viewBox="0 0 17 17" fill="none" xmlns="http://www.w3.org/2000/svg">
<path d="M11.1689 5.12266C11.1689 6.47012 10.0766 7.56244 8.72911 7.56244C7.38166 7.56244 6.28934 6.47012 6.28934 5.12266C6.28934 3.77521 7.38166 2.68289 8.72911 2.68289C10.0766 2.68289 11.1689 3.77521 11.1689 5.12266Z" stroke="#C9C9C9" stroke-width="0.8775"/>
<path d="M4.00371 14.312C3.66423 14.312 3.46616 14.0499 3.50407 13.8113C3.57077 13.3915 3.68209 12.9803 3.83637 12.5858C4.10449 11.9001 4.49687 11.2786 4.98996 10.7563C5.483 10.234 6.06693 9.82116 6.70773 9.53999C7.34845 9.25885 8.0342 9.11453 8.72607 9.11453C9.41794 9.11453 10.1037 9.25885 10.7444 9.53999C11.3852 9.82116 11.9692 10.234 12.4622 10.7563C12.9553 11.2786 13.3477 11.9001 13.6158 12.5858C13.7701 12.9803 13.8814 13.3915 13.9481 13.8113C13.986 14.0499 13.7879 14.312 13.4484 14.312L4.00371 14.312Z" stroke="#C9C9C9" stroke-width="0.8775" stroke-linejoin="round"/>
</svg>
