<svg width="120" height="120" viewBox="0 0 120 120" fill="none" xmlns="http://www.w3.org/2000/svg">
<g opacity="0.1">
<path d="M61.7544 79.3253C60.8562 80.0139 60.0059 80.6856 59.2204 81.3195C59.2356 79.0993 59.3189 76.4258 59.5391 73.459C60.1728 64.9224 61.9251 54.1805 66.2911 44.829C69.2678 38.4534 72.767 34.2526 76.6057 31.9542C80.3499 29.7123 84.7433 29.082 90.0385 30.462C100.355 33.1504 106.539 43.6928 103.85 54.0092C102.071 60.8352 96.8549 65.8561 90.5254 67.6909C89.2937 68.0479 88.1431 68.1565 86.5161 68.3101C86.1386 68.3458 85.7354 68.3839 85.2995 68.428C83.0691 68.654 80.4204 69.0239 77.0986 70.1731C71.9912 71.9401 66.1292 75.9714 61.7544 79.3253Z" stroke="#FFE89E" stroke-width="6.5"/>
<path d="M49.8611 87.8135C49.1803 87.4988 48.4357 87.1303 47.6332 86.6998C43.0645 84.2487 36.5846 79.7673 29.3363 71.7007C26.2086 68.22 23.3458 63.3102 22.0577 58.2533C20.7725 53.208 21.1296 48.3935 23.8137 44.5672C26.6149 40.574 30.1315 38.3389 33.8115 37.7837C37.4818 37.2298 41.7915 38.2756 46.3206 41.7682C48.4156 43.3837 49.5813 45.0735 50.2457 46.8404C50.9293 48.6582 51.1538 50.749 51.068 53.2579C50.9885 55.5812 50.6561 58.0598 50.2786 60.8742C50.2431 61.139 50.2072 61.4068 50.1711 61.6777C49.7598 64.7607 49.3336 68.1629 49.2696 71.7489C49.1376 79.1446 49.4633 84.3375 49.8611 87.8135Z" stroke="#FFE89E" stroke-width="6.5"/>
</g>
</svg>
