<svg width="120" height="120" viewBox="0 0 120 120" fill="none" xmlns="http://www.w3.org/2000/svg">
<g opacity="0.1">
<path d="M16.4775 92.0653H13.228C13.228 93.3147 13.9443 94.4535 15.0705 94.9945C16.1967 95.5354 17.5333 95.3828 18.5086 94.6019L16.4775 92.0653ZM59.9924 92.0653L58.2534 94.8104L59.9924 95.912L61.7314 94.8104L59.9924 92.0653ZM103.507 92.0653L101.476 94.6019C102.451 95.3828 103.788 95.5354 104.914 94.9945C106.04 94.4535 106.757 93.3147 106.757 92.0653H103.507ZM16.4775 35.5631L14.4465 33.0265C13.6763 33.6432 13.228 34.5764 13.228 35.5631H16.4775ZM103.507 35.5631H106.757C106.757 34.5764 106.308 33.6432 105.538 33.0265L103.507 35.5631ZM59.9924 92.0653C61.7314 94.8104 61.7309 94.8107 61.7305 94.811C61.7304 94.811 61.7301 94.8112 61.73 94.8113C61.7297 94.8115 61.7296 94.8116 61.7296 94.8115C61.7298 94.8114 61.7307 94.8109 61.7322 94.8099C61.7354 94.8079 61.7414 94.8041 61.7503 94.7986C61.7679 94.7875 61.7967 94.7696 61.8363 94.7451C61.9156 94.6963 62.0377 94.6216 62.1993 94.5248C62.5227 94.3311 63.003 94.0494 63.6124 93.709C64.8338 93.0267 66.5602 92.1164 68.5709 91.2081C72.6916 89.3466 77.6121 87.6776 81.7498 87.6776V81.1784C76.1861 81.1784 70.228 83.328 65.8953 85.2852C63.6793 86.2862 61.7853 87.2852 60.4431 88.035C59.7706 88.4106 59.2333 88.7255 58.8594 88.9495C58.6724 89.0615 58.5261 89.1509 58.4239 89.2139C58.3729 89.2454 58.3328 89.2703 58.3043 89.2882C58.29 89.2971 58.2786 89.3043 58.2701 89.3097C58.2658 89.3123 58.2623 89.3146 58.2595 89.3163C58.2581 89.3172 58.2569 89.3179 58.2559 89.3186C58.2554 89.3189 58.2548 89.3193 58.2545 89.3195C58.2539 89.3198 58.2534 89.3202 59.9924 92.0653ZM81.7498 87.6776C86.442 87.6776 89.5693 88.0627 92.3504 89.039C95.1315 90.0152 97.8134 91.6691 101.476 94.6019L105.538 89.5287C101.628 86.3979 98.282 84.2332 94.503 82.9066C90.7239 81.5801 86.7589 81.1784 81.7498 81.1784V87.6776ZM18.5086 94.6019C22.1714 91.6691 24.8533 90.0152 27.6344 89.039C30.4155 88.0627 33.5427 87.6776 38.235 87.6776V81.1784C33.2259 81.1784 29.2609 81.5801 25.4818 82.9066C21.7027 84.2332 18.3566 86.3979 14.4465 89.5287L18.5086 94.6019ZM38.235 87.6776C42.3726 87.6776 47.2932 89.3466 51.4139 91.2081C53.4246 92.1164 55.151 93.0267 56.3724 93.709C56.9818 94.0494 57.4621 94.3311 57.7854 94.5248C57.9471 94.6216 58.0692 94.6963 58.1484 94.7451C58.188 94.7696 58.2169 94.7875 58.2345 94.7986C58.2433 94.8041 58.2493 94.8079 58.2525 94.8099C58.2541 94.8109 58.255 94.8114 58.2551 94.8115C58.2552 94.8116 58.2551 94.8115 58.2548 94.8113C58.2547 94.8112 58.2543 94.811 58.2542 94.811C58.2538 94.8107 58.2534 94.8104 59.9924 92.0653C61.7314 89.3202 61.7308 89.3198 61.7302 89.3195C61.73 89.3193 61.7294 89.3189 61.7289 89.3186C61.7278 89.3179 61.7266 89.3172 61.7252 89.3163C61.7225 89.3146 61.7189 89.3123 61.7147 89.3097C61.7062 89.3043 61.6948 89.2971 61.6805 89.2882C61.6519 89.2703 61.6119 89.2454 61.5608 89.2139C61.4587 89.1509 61.3123 89.0615 61.1253 88.9495C60.7515 88.7255 60.2141 88.4106 59.5417 88.035C58.1994 87.2852 56.3054 86.2862 54.0894 85.2852C49.7568 83.328 43.7986 81.1784 38.235 81.1784V87.6776ZM59.9924 35.5631C61.7314 38.3082 61.7309 38.3085 61.7305 38.3087C61.7304 38.3088 61.7301 38.309 61.73 38.3091C61.7297 38.3093 61.7296 38.3093 61.7296 38.3093C61.7298 38.3092 61.7307 38.3087 61.7322 38.3077C61.7354 38.3057 61.7414 38.3019 61.7503 38.2964C61.7679 38.2853 61.7967 38.2674 61.8363 38.2429C61.9156 38.1941 62.0377 38.1194 62.1993 38.0226C62.5227 37.8289 63.003 37.5472 63.6124 37.2068C64.8338 36.5245 66.5602 35.6142 68.5709 34.7059C72.6916 32.8444 77.6121 31.1754 81.7498 31.1754V24.6762C76.1861 24.6762 70.228 26.8258 65.8953 28.783C63.6793 29.784 61.7853 30.783 60.4431 31.5328C59.7706 31.9084 59.2333 32.2233 58.8594 32.4473C58.6724 32.5593 58.5261 32.6487 58.4239 32.7117C58.3729 32.7432 58.3328 32.7681 58.3043 32.786C58.29 32.7949 58.2786 32.8021 58.2701 32.8074C58.2658 32.8101 58.2623 32.8123 58.2595 32.8141C58.2581 32.815 58.2569 32.8157 58.2559 32.8164C58.2554 32.8167 58.2548 32.8171 58.2545 32.8173C58.2539 32.8176 58.2534 32.818 59.9924 35.5631ZM81.7498 31.1754C86.442 31.1754 89.5693 31.5605 92.3504 32.5367C95.1315 33.513 97.8134 35.1669 101.476 38.0997L105.538 33.0265C101.628 29.8956 98.282 27.7309 94.503 26.4044C90.7239 25.0779 86.7589 24.6762 81.7498 24.6762V31.1754ZM18.5086 38.0997C22.1714 35.1669 24.8533 33.513 27.6344 32.5367C30.4155 31.5605 33.5427 31.1754 38.235 31.1754V24.6762C33.2259 24.6762 29.2609 25.0779 25.4818 26.4044C21.7027 27.7309 18.3566 29.8956 14.4465 33.0265L18.5086 38.0997ZM38.235 31.1754C42.3726 31.1754 47.2932 32.8444 51.4139 34.7059C53.4246 35.6142 55.151 36.5245 56.3724 37.2068C56.9818 37.5472 57.4621 37.8289 57.7854 38.0226C57.9471 38.1194 58.0692 38.1941 58.1484 38.2429C58.188 38.2674 58.2169 38.2853 58.2345 38.2964C58.2433 38.3019 58.2493 38.3057 58.2525 38.3077C58.2541 38.3087 58.255 38.3092 58.2551 38.3093C58.2552 38.3093 58.2551 38.3093 58.2548 38.3091C58.2547 38.309 58.2543 38.3088 58.2542 38.3087C58.2538 38.3085 58.2534 38.3082 59.9924 35.5631C61.7314 32.818 61.7308 32.8176 61.7302 32.8173C61.73 32.8171 61.7294 32.8167 61.7289 32.8164C61.7278 32.8157 61.7266 32.815 61.7252 32.8141C61.7225 32.8123 61.7189 32.8101 61.7147 32.8074C61.7062 32.8021 61.6948 32.7949 61.6805 32.786C61.6519 32.7681 61.6119 32.7432 61.5608 32.7117C61.4587 32.6487 61.3123 32.5593 61.1253 32.4473C60.7515 32.2233 60.2141 31.9084 59.5417 31.5328C58.1994 30.783 56.3054 29.784 54.0894 28.783C49.7568 26.8258 43.7986 24.6762 38.235 24.6762V31.1754ZM100.258 35.5631V92.0653H106.757V35.5631H100.258ZM63.242 92.0653V35.5631H56.7428V92.0653H63.242ZM13.228 35.5631V92.0653H19.7271V35.5631H13.228Z" fill="#FFE89E"/>
</g>
</svg>
