<svg width="120" height="120" viewBox="0 0 120 120" fill="none" xmlns="http://www.w3.org/2000/svg">
<g opacity="0.1">
<mask id="path-1-inside-1_1477_153899" fill="white">
<path fill-rule="evenodd" clip-rule="evenodd" d="M33.252 79.1152H19.6412C16.0478 79.1152 13.1348 76.2022 13.1348 72.6088V49.8285C13.1348 46.2351 16.0478 43.3221 19.6412 43.3221H33.2769C33.5298 43.0667 33.8054 42.8307 34.1022 42.6173L53.3494 28.7783C57.6537 25.6834 63.6542 28.7595 63.6542 34.0609V88.4829C63.6542 93.7926 57.6372 96.8667 53.3348 93.755L34.0875 79.8346C33.7866 79.617 33.5075 79.376 33.252 79.1152Z"/>
</mask>
<path d="M33.252 79.1152L37.8957 74.5669C36.673 73.3186 34.9993 72.6152 33.252 72.6152V79.1152ZM33.2769 43.3221V49.8221C35.0119 49.8221 36.6749 49.1285 37.8957 47.8956L33.2769 43.3221ZM34.1022 42.6173L37.8967 47.8948H37.8967L34.1022 42.6173ZM53.3494 28.7783L57.144 34.0557V34.0557L53.3494 28.7783ZM53.3348 93.755L57.144 88.4881L57.144 88.4881L53.3348 93.755ZM34.0875 79.8346L37.8967 74.5677H37.8967L34.0875 79.8346ZM33.252 72.6152H19.6412V85.6152H33.252V72.6152ZM19.6412 72.6152C19.6363 72.6152 19.6336 72.6149 19.6327 72.6148C19.6318 72.6148 19.632 72.6147 19.633 72.6149C19.6354 72.6154 19.6383 72.6163 19.6407 72.6173C19.6428 72.6182 19.6432 72.6186 19.6421 72.6179C19.6409 72.6171 19.6389 72.6156 19.6366 72.6133C19.6344 72.611 19.6328 72.609 19.632 72.6078C19.6313 72.6068 19.6317 72.6072 19.6326 72.6093C19.6336 72.6116 19.6345 72.6145 19.635 72.6169C19.6352 72.618 19.6352 72.6182 19.6351 72.6173C19.635 72.6164 19.6348 72.6136 19.6348 72.6088H6.63477C6.63477 79.792 12.4579 85.6152 19.6412 85.6152V72.6152ZM19.6348 72.6088V49.8285H6.63477V72.6088H19.6348ZM19.6348 49.8285C19.6348 49.8236 19.635 49.8209 19.6351 49.82C19.6352 49.8191 19.6352 49.8193 19.635 49.8204C19.6345 49.8228 19.6336 49.8256 19.6326 49.828C19.6317 49.8301 19.6313 49.8305 19.632 49.8295C19.6328 49.8283 19.6344 49.8263 19.6366 49.824C19.6389 49.8217 19.6409 49.8202 19.6421 49.8194C19.6432 49.8186 19.6428 49.8191 19.6407 49.82C19.6383 49.821 19.6354 49.8218 19.633 49.8223C19.632 49.8226 19.6318 49.8225 19.6327 49.8224C19.6336 49.8224 19.6363 49.8221 19.6412 49.8221V36.8221C12.4579 36.8221 6.63477 42.6453 6.63477 49.8285H19.6348ZM19.6412 49.8221H33.2769V36.8221H19.6412V49.8221ZM37.8957 47.8956C37.8955 47.8957 37.8957 47.8955 37.8967 47.8948L30.3076 37.3399C29.7151 37.7659 29.164 38.2377 28.6581 38.7486L37.8957 47.8956ZM37.8967 47.8948L57.144 34.0557L49.5549 23.5008L30.3076 37.3399L37.8967 47.8948ZM57.144 34.0557C57.1636 34.0416 57.1756 34.035 57.1794 34.033C57.1833 34.031 57.1822 34.0319 57.1764 34.0339C57.1708 34.0359 57.1632 34.0381 57.1545 34.0398C57.1458 34.0415 57.1379 34.0424 57.1311 34.0428C57.1175 34.0435 57.1132 34.0419 57.1186 34.043C57.1213 34.0436 57.1257 34.0448 57.1316 34.0469C57.1375 34.049 57.144 34.0518 57.1507 34.0552C57.1574 34.0586 57.1634 34.0623 57.1686 34.0658C57.1737 34.0694 57.1772 34.0723 57.1793 34.0741C57.1833 34.0778 57.1795 34.0753 57.1722 34.0638C57.1685 34.0581 57.1646 34.0511 57.1609 34.0431C57.1572 34.035 57.1546 34.0276 57.1529 34.0219C57.1512 34.016 57.1512 34.0146 57.1519 34.0189C57.1525 34.0232 57.1542 34.0367 57.1542 34.0609H70.1542C70.1542 23.4632 58.1592 17.3142 49.5549 23.5008L57.144 34.0557ZM57.1542 34.0609V88.4829H70.1542V34.0609H57.1542ZM57.1542 88.4829C57.1542 88.5073 57.1525 88.5208 57.1519 88.5252C57.1512 88.5295 57.1512 88.5281 57.1529 88.5222C57.1546 88.5164 57.1573 88.509 57.161 88.5009C57.1647 88.4928 57.1686 88.4857 57.1723 88.48C57.1797 88.4685 57.1836 88.4659 57.1794 88.4696C57.1774 88.4715 57.1738 88.4744 57.1687 88.478C57.1635 88.4815 57.1574 88.4852 57.1507 88.4886C57.1439 88.4921 57.1374 88.4949 57.1315 88.497C57.1255 88.4991 57.1211 88.5003 57.1184 88.5008C57.113 88.502 57.1173 88.5003 57.131 88.5011C57.1378 88.5015 57.1458 88.5024 57.1545 88.5042C57.1633 88.5059 57.1709 88.5081 57.1766 88.5101C57.1823 88.5122 57.1834 88.5131 57.1796 88.511C57.1757 88.509 57.1637 88.5024 57.144 88.4881L49.5255 99.0219C58.1261 105.242 70.1542 99.0971 70.1542 88.4829H57.1542ZM57.144 88.4881L37.8967 74.5677L30.2783 85.1015L49.5256 99.0219L57.144 88.4881ZM37.8967 74.5677C37.8957 74.567 37.8955 74.5668 37.8957 74.5669L28.6084 83.6634C29.1195 84.1853 29.6775 84.6669 30.2783 85.1015L37.8967 74.5677Z" fill="#FFE89E" mask="url(#path-1-inside-1_1477_153899)"/>
<path d="M84.0947 40.7812C88.4851 47.2936 90.817 54.9751 90.7877 62.829C90.7585 70.683 88.3694 78.3469 83.9307 84.8263" stroke="#FFE89E" stroke-width="6.5" stroke-linecap="round"/>
<path d="M74.4823 48.3008C77.0405 52.0954 78.3992 56.5712 78.3822 61.1476C78.3651 65.7239 76.9731 70.1895 74.3867 73.965" stroke="#FFE89E" stroke-width="6.5" stroke-linecap="round"/>
<path d="M96.5451 34.9805C102.091 43.2072 105.037 52.9108 105 62.8324C104.963 72.7539 101.945 82.4354 96.3379 90.6205" stroke="#FFE89E" stroke-width="6.5" stroke-linecap="round"/>
</g>
</svg>
