<svg width="130" height="124" viewBox="0 0 130 124" fill="none" xmlns="http://www.w3.org/2000/svg">
<path d="M130 61.9997L96.1026 72.1094L117.582 100.22L84.2051 88.4585L85.0882 123.831L65.0018 94.6909L44.9118 123.831L45.7949 88.4585L12.4181 100.22L33.8974 72.1094L0 61.9997L33.8974 51.8901L12.4181 23.7834L45.7949 35.5445L44.9118 0.167969L65.0018 29.3122L85.0882 0.167969L84.2051 35.5445L117.582 23.7834L96.1026 51.8901L130 61.9997Z" fill="#FFE1EA" stroke="#231815" stroke-width="2.08" stroke-linejoin="round"/>
<path d="M38.3714 48.9879C38.3608 49.3282 38.3545 49.6727 38.3545 50.0171C38.3545 61.3113 44.2467 70.4667 51.517 70.4667C58.7872 70.4667 64.6794 61.3113 64.6794 50.0171C64.6794 45.1393 63.5783 40.6631 61.7439 37.1484L38.3714 48.9879Z" fill="#FBF9F5" stroke="#231815" stroke-width="2.08" stroke-linecap="round" stroke-linejoin="round"/>
<mask id="mask0_2306_8310" style="mask-type:luminance" maskUnits="userSpaceOnUse" x="38" y="37" width="27" height="34">
<path d="M38.3714 48.9879C38.3608 49.3282 38.3545 49.6727 38.3545 50.0171C38.3545 61.3113 44.2467 70.4667 51.517 70.4667C58.7872 70.4667 64.6794 61.3113 64.6794 50.0171C64.6794 45.1393 63.5783 40.6631 61.7439 37.1484L38.3714 48.9879Z" fill="white"/>
</mask>
<g mask="url(#mask0_2306_8310)">
<path d="M56.4534 72.7144C61.1912 72.7144 65.0319 67.2917 65.0319 60.6023C65.0319 53.913 61.1912 48.4902 56.4534 48.4902C51.7157 48.4902 47.875 53.913 47.875 60.6023C47.875 67.2917 51.7157 72.7144 56.4534 72.7144Z" fill="#231815"/>
</g>
<path d="M92.1645 48.9879C92.1751 49.3282 92.1814 49.6727 92.1814 50.0171C92.1814 61.3113 86.2891 70.4667 79.0189 70.4667C71.7487 70.4667 65.8564 61.3113 65.8564 50.0171C65.8564 45.1393 66.9575 40.6631 68.792 37.1484L92.1645 48.9879Z" fill="#FBF9F5" stroke="#231815" stroke-width="2.08" stroke-linecap="round" stroke-linejoin="round"/>
<mask id="mask1_2306_8310" style="mask-type:luminance" maskUnits="userSpaceOnUse" x="65" y="37" width="28" height="34">
<path d="M92.1664 48.9859C92.177 49.3262 92.1833 49.6707 92.1833 50.0152C92.1833 61.3094 86.2911 70.4648 79.0209 70.4648C71.7506 70.4648 65.8584 61.3094 65.8584 50.0152C65.8584 45.1374 66.9595 40.6611 68.794 37.1465L92.1664 48.9859Z" fill="white"/>
</mask>
<g mask="url(#mask1_2306_8310)">
<path d="M74.0853 72.7144C78.823 72.7144 82.6637 67.2917 82.6637 60.6023C82.6637 53.913 78.823 48.4902 74.0853 48.4902C69.3475 48.4902 65.5068 53.913 65.5068 60.6023C65.5068 67.2917 69.3475 72.7144 74.0853 72.7144Z" fill="#231815"/>
</g>
<path d="M65.0011 91.8792C69.1573 91.8792 72.5266 87.6368 72.5266 82.4035C72.5266 77.1702 69.1573 72.9277 65.0011 72.9277C60.8449 72.9277 57.4756 77.1702 57.4756 82.4035C57.4756 87.6368 60.8449 91.8792 65.0011 91.8792Z" fill="#EA486F" stroke="#231815" stroke-width="2.08"/>
<path d="M62.4211 59.4391C58.7465 60.3034 58.0458 61.0041 57.1812 64.6789C56.3169 61.0043 55.6162 60.3036 51.9414 59.4391C55.6162 58.5747 56.3169 57.874 57.1812 54.1992C58.0456 57.8738 58.7463 58.5745 62.4211 59.4391Z" fill="#FBF9F5"/>
<path d="M78.6232 59.4391C74.9487 60.3034 74.2479 61.0041 73.3834 64.6789C72.5191 61.0043 71.8184 60.3036 68.1436 59.4391C71.8184 58.5747 72.5191 57.874 73.3834 54.1992C74.2477 57.8738 74.9484 58.5745 78.6232 59.4391Z" fill="#FBF9F5"/>
</svg>
