<svg width="1960" height="833" viewBox="0 0 1960 833" fill="none" xmlns="http://www.w3.org/2000/svg">
<g clip-path="url(#clip0_1485_14497)">
<path d="M1337.06 880.01L1446.67 770.401L1184.29 770.401L1184.29 684.159L1446.74 684.159L1337.06 574.48L1398.04 513.498L1507.66 623.121L1507.66 360.766L1593.9 360.766L1593.9 623.163L1703.55 513.518L1764.53 574.501L1654.87 684.159L1917.28 684.159L1917.28 770.401L1654.94 770.401L1764.53 879.99L1703.55 940.973L1593.9 831.328L1593.9 1093.76L1507.66 1093.76L1507.66 831.37L1398.04 940.993L1337.06 880.01Z" stroke="#BBFFBA"/>
<path d="M1036.97 367.698L1108.63 296.038L937.092 296.038L937.092 239.655L1108.67 239.655L1036.97 167.949L1076.84 128.08L1148.51 199.749L1148.51 28.2279L1204.89 28.2279L1204.89 199.777L1276.57 128.094L1316.44 167.963L1244.75 239.655L1416.31 239.655L1416.31 296.038L1244.8 296.038L1316.44 367.685L1276.57 407.554L1204.89 335.871L1204.89 507.442L1148.51 507.442L1148.51 335.898L1076.84 407.567L1036.97 367.698Z" stroke="#BBFFBA"/>
<rect y="114.709" width="1920" height="717.812" fill="url(#paint0_linear_1485_14497)"/>
</g>
<defs>
<linearGradient id="paint0_linear_1485_14497" x1="960" y1="114.709" x2="960" y2="832.521" gradientUnits="userSpaceOnUse">
<stop stop-color="#282828" stop-opacity="0"/>
<stop offset="0.169755" stop-color="#282828" stop-opacity="0.330504"/>
<stop offset="0.303608" stop-color="#282828" stop-opacity="0.524887"/>
<stop offset="0.485647" stop-color="#282828" stop-opacity="0.713736"/>
<stop offset="0.662332" stop-color="#282828" stop-opacity="0.843251"/>
<stop offset="0.802715" stop-color="#282828" stop-opacity="0.931306"/>
<stop offset="1" stop-color="#282828"/>
</linearGradient>
<clipPath id="clip0_1485_14497">
<rect width="1960" height="833" fill="white"/>
</clipPath>
</defs>
</svg>
