<svg width="68" height="38" viewBox="0 0 68 38" fill="none" xmlns="http://www.w3.org/2000/svg">
<path d="M0.378906 0.0351562C0.803647 13.0086 8.10221 21.6593 17.0433 21.6593C25.9843 21.6593 33.2829 13.0086 33.7076 0.0351562H0.378906Z" fill="white" stroke="#231815" stroke-width="1.51627" stroke-linecap="round" stroke-linejoin="round"/>
<path d="M33.751 0.0351562C34.1757 13.0086 41.4743 21.6593 50.4153 21.6593C59.3564 21.6593 66.6549 13.0086 67.0797 0.0351562H33.751Z" fill="white" stroke="#231815" stroke-width="1.51627" stroke-linecap="round" stroke-linejoin="round"/>
<path d="M42.4961 0.0351562C44.2945 6.60251 48.9398 11.28 54.3889 11.28C59.8379 11.28 64.4832 6.60251 66.2816 0.0351562H42.4961Z" fill="#231815"/>
<path d="M9.60059 0.0351562C11.399 6.60251 16.0443 11.28 21.4933 11.28C26.9424 11.28 31.5876 6.60251 33.3861 0.0351562H9.60059Z" fill="#231815"/>
<path d="M24.6882 26.4805L34.0265 37.311L43.3648 26.4805" stroke="black" stroke-width="1.51627" stroke-linecap="round"/>
</svg>
