<svg width="68" height="31" viewBox="0 0 68 31" fill="none" xmlns="http://www.w3.org/2000/svg">
<path d="M0.84082 9.29102C1.24044 22.2323 8.50442 30.8745 17.4228 30.8911C26.3411 30.9077 33.6372 22.2925 34.0849 9.35279L0.84082 9.29102Z" fill="#FBF9F5" stroke="#282828" stroke-width="1.51627" stroke-linecap="round" stroke-linejoin="round"/>
<path d="M34.124 9.35156C34.5236 22.2928 41.7876 30.9351 50.706 30.9517C59.6243 30.9682 66.9204 22.353 67.3681 9.41334L34.124 9.35156Z" fill="#FBF9F5" stroke="#282828" stroke-width="1.51627" stroke-linecap="round" stroke-linejoin="round"/>
<path d="M42.8486 9.37109C44.6303 15.9249 49.2549 20.599 54.69 20.6091C60.125 20.6192 64.767 15.9623 66.5729 9.41518L42.8486 9.37109Z" fill="#282828"/>
<path d="M10.0352 9.30859C11.8168 15.8624 16.4414 20.5365 21.8765 20.5466C27.3115 20.5567 31.9535 15.8998 33.7594 9.35268L10.0352 9.30859Z" fill="#282828"/>
<path d="M33.1967 6.07268L8.81055 0.847656" stroke="black" stroke-width="1.51627"/>
</svg>
