<svg width="67" height="38" viewBox="0 0 67 38" fill="none" xmlns="http://www.w3.org/2000/svg">
<path d="M0.203125 0.0351562C0.627866 13.0086 7.92642 21.6593 16.8675 21.6593C25.8085 21.6593 33.1071 13.0086 33.5318 0.0351562H0.203125Z" fill="white" stroke="#231815" stroke-width="1.51627" stroke-linecap="round" stroke-linejoin="round"/>
<path d="M33.5752 0.0351562C33.9999 13.0086 41.2985 21.6593 50.2395 21.6593C59.1806 21.6593 66.4792 13.0086 66.9039 0.0351562H33.5752Z" fill="white" stroke="#231815" stroke-width="1.51627" stroke-linecap="round" stroke-linejoin="round"/>
<path d="M42.3203 0.0351562C44.1187 6.60251 48.764 11.28 54.2131 11.28C59.6621 11.28 64.3074 6.60251 66.1058 0.0351562H42.3203Z" fill="#231815"/>
<path d="M9.4248 0.0351562C11.2232 6.60251 15.8685 11.28 21.3175 11.28C26.7666 11.28 31.4119 6.60251 33.2103 0.0351562H9.4248Z" fill="#231815"/>
<path d="M24.5125 26.4805L33.8507 37.311L43.189 26.4805" stroke="black" stroke-width="1.51627" stroke-linecap="round"/>
</svg>
