<svg width="1942" height="810" viewBox="0 0 1942 810" fill="none" xmlns="http://www.w3.org/2000/svg">
<path d="M1594.62 806.073V481.969H1677.88L1767.41 703.559H1769.21L1858.74 481.969H1942V806.073H1877.09V605.523H1875.75L1795.62 806.073H1741L1661.32 605.523H1659.53V806.073H1594.62Z" fill="white"/>
<path d="M1483.15 806.073L1458.98 734.895H1334.08L1309.46 806.073H1236.49L1361.39 481.969H1431.22L1556.12 806.073H1483.15ZM1355.12 673.119H1437.94L1397.2 555.385H1395.41L1355.12 673.119Z" fill="white"/>
<path d="M1095.93 809.206C1038.85 809.206 998.564 774.065 986.701 715.646L1051.61 703.111C1058.1 733.104 1073.77 746.534 1095.93 746.534C1124.13 746.534 1141.81 724.151 1142.04 686.548V478.835H1208.74V686.548C1208.52 760.188 1162.85 809.206 1095.93 809.206Z" fill="white"/>
<path d="M663.492 806.073V481.969H738.699L880.158 700.873H881.949V481.969H948.202V806.073H873.891L732.431 585.826H729.745V806.073H663.492Z" fill="white"/>
<path d="M552.026 806.073L527.853 734.895H402.956L378.335 806.073H305.367L430.263 481.969H500.098L624.994 806.073H552.026ZM423.996 673.119H506.813L466.076 555.385H464.285L423.996 673.119Z" fill="white"/>
<path d="M22 806.073V481.969H120.932C227.922 481.969 298.652 546.208 299.1 644.021C298.652 741.834 227.922 806.073 120.932 806.073H22ZM88.2532 743.848H120.932C190.543 743.848 231.951 706.917 232.399 644.021C231.951 581.125 190.543 544.194 120.932 544.194H88.2532V743.848Z" fill="white"/>
<path d="M368.887 264.992C344.142 230.23 295.901 222.112 261.137 246.864C226.374 271.616 218.256 319.857 243.008 354.62C208.239 379.363 200.121 427.604 224.874 462.368C249.619 497.13 297.866 505.249 332.63 480.497C357.375 515.259 405.623 523.378 440.386 498.627C475.148 473.882 483.268 425.634 458.515 390.87C493.278 366.125 501.397 317.878 476.645 283.114C451.9 248.352 403.652 240.232 368.889 264.985L368.887 264.992Z" fill="#FFE89E"/>
<path fill-rule="evenodd" clip-rule="evenodd" d="M369.417 261.816C405.06 237.912 453.479 246.595 478.522 281.776C503.572 316.958 495.931 365.549 461.686 391.404C485.586 427.047 476.903 475.463 441.723 500.505C406.541 525.555 357.95 517.914 332.095 483.67C296.452 507.569 248.036 498.886 222.994 463.706C197.944 428.524 205.583 379.939 239.835 354.086C215.935 318.444 224.617 270.035 259.799 244.986C294.979 219.937 343.561 227.574 369.417 261.816ZM370.34 266.782C370.049 267.018 369.7 267.184 369.318 267.257C368.432 267.426 367.53 267.064 367.006 266.329C343 232.605 296.2 224.73 262.474 248.743C228.748 272.756 220.873 319.557 244.886 353.283C245.241 353.781 245.383 354.4 245.281 355.003C245.18 355.607 244.843 356.145 244.344 356.5C210.613 380.504 202.738 427.304 226.751 461.03L226.751 461.03C250.758 494.755 297.565 502.632 331.291 478.618C331.789 478.264 332.408 478.121 333.011 478.223C333.615 478.324 334.153 478.662 334.507 479.16C358.514 512.884 405.321 520.761 439.047 496.748L439.048 496.748C472.772 472.742 480.649 425.934 456.636 392.208C456.281 391.71 456.139 391.091 456.24 390.488C456.341 389.884 456.679 389.346 457.177 388.991C490.901 364.985 498.778 318.178 474.765 284.452L474.764 284.451C450.786 250.765 404.057 242.868 370.34 266.782Z" fill="black"/>
<path d="M336.423 397.083C344.384 386.606 350.513 372.27 353.184 355.93C359.092 319.783 345.138 291.953 322.914 288.321C300.69 284.688 278.603 306.627 272.695 342.775C270.024 359.115 271.264 374.655 275.481 387.122L336.429 397.084L336.423 397.083Z" fill="white" stroke="#231815" stroke-width="4.98178" stroke-linecap="round" stroke-linejoin="round"/>
<path d="M416.912 410.238C424.872 399.761 431.001 385.426 433.672 369.085C439.58 332.938 425.626 305.109 403.403 301.476C381.178 297.844 359.091 319.782 353.183 355.93C350.512 372.27 351.752 387.81 355.969 400.278L416.917 410.239L416.912 410.238Z" fill="white" stroke="#231815" stroke-width="4.98178" stroke-linecap="round" stroke-linejoin="round"/>
<path d="M338.257 397.383C342.959 391.33 346.487 383.317 347.973 374.227C351.506 352.608 342.192 333.097 327.17 330.641C312.148 328.186 297.107 343.717 293.574 365.336C292.087 374.432 292.882 383.145 295.412 390.38L338.251 397.382L338.257 397.383Z" fill="#231815"/>
<path d="M397.418 407.052C402.12 401 405.648 392.987 407.134 383.897C410.668 362.278 401.354 342.766 386.332 340.311C371.31 337.856 356.268 353.387 352.735 375.005C351.248 384.101 352.043 392.815 354.573 400.05L397.412 407.051L397.418 407.052Z" fill="#231815"/>
<path d="M312.186 410.786C311.259 413.464 310.535 416.285 310.055 419.218C306.433 441.384 317.763 461.685 335.371 464.563C352.978 467.441 370.183 451.803 373.805 429.637C374.285 426.704 374.497 423.8 374.47 420.966L312.177 410.784L312.186 410.786Z" fill="#E83A53" stroke="black" stroke-width="4.98178" stroke-linejoin="round"/>
<path d="M402.753 369.185C392.442 369.898 390.239 371.481 386.28 381.029C385.567 370.719 383.983 368.516 374.435 364.556C384.747 363.844 386.95 362.26 390.908 352.712C391.621 363.023 393.204 365.226 402.753 369.185Z" fill="white"/>
<path d="M340.437 358.999C330.125 359.712 327.923 361.296 323.964 370.844C323.251 360.533 321.667 358.33 312.118 354.371C322.43 353.658 324.633 352.074 328.592 342.526C329.304 352.837 330.889 355.04 340.437 358.999Z" fill="white"/>
<path d="M753.62 339.946L783.388 407.54C786.218 413.967 792.884 417.824 799.856 417.064L873.203 409.077C887.114 407.565 896.206 423.317 887.939 434.625L844.359 494.231C840.218 499.898 840.218 507.605 844.359 513.271L887.939 572.877C896.206 584.185 887.122 599.938 873.203 598.426L799.856 590.439C792.876 589.678 786.218 593.528 783.388 599.962L753.62 667.556C747.977 680.376 729.801 680.376 724.157 667.556L694.39 599.962C691.56 593.536 684.893 589.678 677.921 590.439L604.574 598.426C590.664 599.938 581.572 584.185 589.839 572.877L633.418 513.271C637.56 507.605 637.56 499.898 633.418 494.231L589.831 434.617C581.564 423.309 590.647 407.557 604.566 409.068L677.913 417.056C684.893 417.816 691.551 413.967 694.381 407.532L724.157 339.946C729.801 327.127 747.977 327.127 753.62 339.946Z" fill="#5956FF" stroke="#231815" stroke-width="5.11623" stroke-miterlimit="10" stroke-linejoin="round"/>
<path d="M647.198 459.483C648.534 500.323 671.493 527.555 699.619 527.555C727.744 527.555 750.703 500.323 752.039 459.483H647.198Z" fill="white" stroke="#231815" stroke-width="5.11623" stroke-linecap="round" stroke-linejoin="round"/>
<path d="M752.175 459.483C753.511 500.323 776.47 527.555 804.595 527.555C832.721 527.555 855.68 500.323 857.016 459.483H752.175Z" fill="white" stroke="#231815" stroke-width="5.11623" stroke-linecap="round" stroke-linejoin="round"/>
<path d="M779.683 459.483C785.34 480.157 799.952 494.882 817.093 494.882C834.234 494.882 848.846 480.157 854.503 459.483H779.683Z" fill="#231815"/>
<path d="M676.202 459.483C681.859 480.157 696.472 494.882 713.613 494.882C730.753 494.882 745.366 480.157 751.023 459.483H676.202Z" fill="#231815"/>
<path d="M679.059 558.508H737.809" stroke="black" stroke-width="5.11623" stroke-linecap="round"/>
<path d="M842.213 475.398C831.895 477.827 829.928 479.796 827.501 490.121C825.074 479.796 823.106 477.828 812.789 475.398C823.106 472.97 825.074 471.001 827.501 460.676C829.927 471 831.895 472.969 842.213 475.398Z" fill="white"/>
<path d="M732.411 481.977C724.119 483.928 722.537 485.511 720.586 493.81C718.635 485.511 717.054 483.929 708.761 481.977C717.054 480.024 718.635 478.442 720.586 470.143C722.537 478.441 724.118 480.024 732.411 481.977Z" fill="white"/>
<path d="M603.545 380.44C598.196 365.998 581.4 334.225 557.008 322.671" stroke="white" stroke-width="4" stroke-linecap="round"/>
<path d="M125.338 396.488C112.5 365.463 69.4936 298.6 0.169922 279.343" stroke="white" stroke-width="4" stroke-linecap="round"/>
<g clip-path="url(#clip0_1485_14417)">
<path d="M1389.21 256.417L1289.36 267.222L1334.85 356.84L1247.72 306.79L1231.96 406.104L1190.9 314.321L1119.8 385.423L1140.49 287.018L1041.25 302.704L1115.7 235.2L1026.27 189.496L1126.12 178.692L1080.64 89.083L1167.76 139.134L1183.52 39.8099L1224.59 131.603L1295.69 60.4918L1274.99 158.907L1374.23 143.219L1299.78 210.713L1389.21 256.417Z" fill="#FFE1EA" stroke="black" stroke-width="5.17059" stroke-linejoin="round"/>
<path d="M1285.22 211.871C1279.51 242.847 1259.6 259.868 1239.6 256.18C1219.6 252.492 1207.07 229.49 1212.78 198.513C1218.49 167.537 1238.5 149.951 1258.5 153.639C1278.51 157.328 1290.93 180.895 1285.22 211.871Z" fill="white" stroke="#231815" stroke-width="5.17059" stroke-linecap="round" stroke-linejoin="round"/>
<path d="M1232.14 252.638C1245.37 255.077 1258.89 241.899 1262.33 223.203C1265.78 204.508 1257.85 187.376 1244.63 184.937C1231.4 182.498 1217.88 195.676 1214.43 214.371C1210.99 233.067 1218.92 250.199 1232.14 252.638Z" fill="#231815"/>
<path d="M1192.35 306.462C1203.95 308.601 1215.54 298.478 1218.24 283.853C1220.94 269.227 1213.72 255.636 1202.11 253.497C1190.51 251.357 1178.92 261.479 1176.22 276.105C1173.52 290.73 1180.74 304.322 1192.35 306.462Z" fill="#E83A53" stroke="black" stroke-width="5.17059"/>
<path d="M1250.44 216.515C1239.74 217.039 1237.42 218.637 1233.12 228.462C1232.6 217.748 1231 215.429 1221.19 211.121C1231.89 210.597 1234.21 208.999 1238.52 199.174C1239.04 209.888 1240.63 212.207 1250.44 216.515Z" fill="white"/>
<path d="M1139.84 185.064C1134.13 216.04 1146.66 239.042 1166.66 242.731C1186.66 246.419 1206.57 229.397 1212.28 198.421C1217.99 167.445 1205.57 143.878 1185.57 140.19C1165.56 136.502 1145.55 154.088 1139.84 185.064Z" fill="white" stroke="#231815" stroke-width="5.17059" stroke-linecap="round" stroke-linejoin="round"/>
<path d="M1174.89 242.081C1161.66 239.642 1153.73 222.51 1157.18 203.814C1160.62 185.119 1174.14 171.941 1187.37 174.38C1200.6 176.819 1208.52 193.951 1205.08 212.646C1201.63 231.342 1188.11 244.52 1174.89 242.081Z" fill="#231815"/>
<path d="M1170.67 201.806C1180.48 206.113 1182.08 208.432 1182.6 219.148C1186.91 209.323 1189.22 207.726 1199.93 207.201C1190.11 202.894 1188.52 200.575 1188 189.859C1183.69 199.684 1181.38 201.282 1170.67 201.806Z" fill="white"/>
</g>
<g clip-path="url(#clip1_1485_14417)">
<path d="M1773.76 478.601C1653.89 533.013 1634.66 561.722 1629.92 693.284C1575.51 573.419 1546.8 554.184 1415.24 549.452C1535.11 495.039 1554.35 466.33 1559.07 334.769C1613.49 454.635 1642.19 473.869 1773.76 478.601Z" fill="#BBFFBA" stroke="black" stroke-width="5.17059" stroke-linejoin="round"/>
<path d="M1591.3 491.591C1597.27 521.773 1585.3 544.398 1565.79 548.253C1546.28 552.109 1526.61 535.736 1520.64 505.555C1514.68 475.373 1526.54 452.198 1546.05 448.342C1565.56 444.487 1585.34 461.409 1591.3 491.591Z" fill="white" stroke="#231815" stroke-width="5.17059" stroke-linecap="round" stroke-linejoin="round"/>
<path d="M1661.96 477.628C1667.92 507.81 1655.96 530.434 1636.45 534.29C1616.94 538.146 1597.27 521.773 1591.3 491.591C1585.34 461.41 1597.19 438.235 1616.7 434.379C1636.21 430.524 1655.99 447.446 1661.96 477.628Z" fill="white" stroke="#231815" stroke-width="5.17059" stroke-linecap="round" stroke-linejoin="round"/>
<path d="M1586.68 479.764C1590.11 497.106 1583.24 510.107 1572.03 512.323C1560.81 514.538 1549.51 505.129 1546.08 487.787C1542.66 470.445 1549.47 457.126 1560.68 454.911C1571.89 452.695 1583.26 462.422 1586.68 479.764Z" fill="#231815"/>
<path d="M1631.82 470.843C1635.25 488.185 1628.38 501.186 1617.16 503.402C1605.95 505.618 1594.65 496.208 1591.22 478.866C1587.8 461.524 1594.61 448.206 1605.82 445.99C1617.03 443.774 1628.39 453.501 1631.82 470.843Z" fill="#231815"/>
<path d="M1572.53 560.456C1572.53 560.456 1581.17 584.718 1608.34 579.349C1635.51 573.98 1634.87 547.364 1634.87 547.364" stroke="black" stroke-width="5.17059" stroke-miterlimit="10" stroke-linecap="round" stroke-linejoin="round"/>
<path d="M1617.96 468.01C1608.84 472.153 1607.37 474.339 1607.01 484.355C1602.87 475.229 1600.68 473.765 1590.67 473.405C1599.79 469.262 1601.26 467.076 1601.62 457.06C1605.76 466.186 1607.95 467.65 1617.96 468.01Z" fill="white"/>
<path d="M1583.11 473.635C1575.78 476.965 1574.6 478.722 1574.31 486.773C1570.98 479.437 1569.23 478.26 1561.17 477.971C1568.51 474.641 1569.69 472.884 1569.98 464.833C1573.31 472.168 1575.06 473.345 1583.11 473.635Z" fill="white"/>
<path fill-rule="evenodd" clip-rule="evenodd" d="M1701.81 406.682L1706.98 401.512H1694.61V397.446L1706.98 397.446L1701.81 392.276L1704.68 389.4L1709.85 394.57V382.197H1713.92V394.57L1719.09 389.401L1721.97 392.276L1716.8 397.446L1729.17 397.446V401.512H1716.8L1721.97 406.682L1719.09 409.557L1713.92 404.388V416.761H1709.85V404.388L1704.68 409.558L1701.81 406.682Z" fill="#BBFFBA"/>
</g>
<path d="M1329.68 411.106C1351.51 380.586 1385.2 359.996 1420.97 349.774" stroke="white" stroke-width="3" stroke-linecap="round"/>
<path d="M940.198 106.411C966.409 120.318 1018.83 173.809 1018.83 276.511" stroke="white" stroke-width="4" stroke-linecap="round"/>
<path d="M924.23 235.155C940.813 239.969 975.581 259.547 982 299.344" stroke="white" stroke-width="4" stroke-linecap="round"/>
<path d="M148.807 338.36C148.807 320.716 155.99 280.134 184.725 258.961" stroke="white" stroke-width="4" stroke-linecap="round"/>
<path d="M1749.59 429.224C1754.55 411.222 1773.43 371.866 1809.18 358.458" stroke="white" stroke-width="4" stroke-linecap="round"/>
<path fill-rule="evenodd" clip-rule="evenodd" d="M1442.32 350.584L1444.99 343.778L1433.65 348.725L1432.02 344.997L1443.36 340.051L1436.56 337.379L1438.04 333.593L1444.85 336.265L1439.9 324.924L1443.63 323.299L1448.58 334.64L1451.25 327.835L1455.03 329.321L1452.36 336.126L1463.7 331.18L1465.33 334.908L1453.99 339.854L1460.79 342.525L1459.31 346.311L1452.5 343.639L1457.45 354.98L1453.72 356.606L1448.77 345.265L1446.1 352.07L1442.32 350.584Z" fill="#BBFFBA"/>
<path fill-rule="evenodd" clip-rule="evenodd" d="M878.781 236.557L885.81 234.548L874.994 228.539L876.969 224.985L887.785 230.993L885.777 223.963L889.687 222.846L891.695 229.875L897.704 219.06L901.259 221.035L895.25 231.851L902.28 229.842L903.397 233.752L896.368 235.761L907.183 241.769L905.208 245.324L894.393 239.316L896.401 246.345L892.491 247.463L890.483 240.433L884.474 251.249L880.919 249.274L886.927 238.458L879.898 240.467L878.781 236.557Z" fill="#BBFFBA"/>
<path fill-rule="evenodd" clip-rule="evenodd" d="M549.647 386.416L554.816 381.246H542.443V377.18L554.817 377.18L549.647 372.01L552.522 369.134L557.692 374.304V361.931H561.759V374.304L566.928 369.134L569.804 372.01L564.634 377.18L577.007 377.18V381.246H564.634L569.804 386.416L566.928 389.291L561.759 384.121V396.495H557.692V384.122L552.522 389.292L549.647 386.416Z" fill="#BBFFBA"/>
<path fill-rule="evenodd" clip-rule="evenodd" d="M119.393 225.073L126.214 222.442L114.902 217.427L116.551 213.71L127.862 218.724L125.231 211.903L129.025 210.439L131.656 217.26L136.671 205.949L140.388 207.598L135.374 218.909L142.195 216.278L143.658 220.072L136.837 222.703L148.148 227.718L146.5 231.435L135.189 226.421L137.82 233.242L134.026 234.705L131.395 227.884L126.38 239.195L122.663 237.547L127.677 226.236L120.856 228.867L119.393 225.073Z" fill="#BBFFBA"/>
<defs>
<clipPath id="clip0_1485_14417">
<rect width="396.382" height="378.526" fill="white" transform="translate(1048.15 0.508789) rotate(10.4472)"/>
</clipPath>
<clipPath id="clip1_1485_14417">
<rect width="373.296" height="373.296" fill="white" transform="translate(1375.33 367.271) rotate(-11.1789)"/>
</clipPath>
</defs>
</svg>
