<svg width="21" height="16" viewBox="0 0 21 16" fill="none" xmlns="http://www.w3.org/2000/svg">
<path d="M10.2172 8.08046C10.2172 12.4006 7.95291 15.1915 5.16035 15.1915C2.3678 15.1915 0.103516 12.4006 0.103516 8.08046C0.103516 3.76035 2.3678 0.890625 5.16035 0.890625C7.95291 0.890625 10.2172 3.76035 10.2172 8.08046Z" fill="white" stroke="#231815" stroke-width="0.837423" stroke-linecap="round" stroke-linejoin="round"/>
<path d="M20.3305 8.08046C20.3305 12.4006 18.0662 15.1915 15.2736 15.1915C12.4811 15.1915 10.2168 12.4006 10.2168 8.08046C10.2168 3.76035 12.4811 0.890625 15.2736 0.890625C18.0662 0.890625 20.3305 3.76035 20.3305 8.08046Z" fill="white" stroke="#231815" stroke-width="0.837423" stroke-linecap="round" stroke-linejoin="round"/>
<path d="M9.90286 6.32491C9.90286 8.80718 8.60206 10.4111 6.99733 10.4111C5.3926 10.4111 4.0918 8.80718 4.0918 6.32491C4.0918 3.84264 5.3926 2.19336 6.99733 2.19336C8.60206 2.19336 9.90286 3.84264 9.90286 6.32491Z" fill="#231815"/>
<path d="M16.3638 6.32491C16.3638 8.80718 15.063 10.4111 13.4583 10.4111C11.8535 10.4111 10.5527 8.80718 10.5527 6.32491C10.5527 3.84264 11.8535 2.19336 13.4583 2.19336C15.063 2.19336 16.3638 3.84264 16.3638 6.32491Z" fill="#231815"/>
</svg>
