<svg width="74" height="75" viewBox="0 0 74 75" fill="none" xmlns="http://www.w3.org/2000/svg">
<g filter="url(#filter0_f_1485_14868)">
<circle cx="37.1705" cy="37.6432" r="15.7506" fill="url(#paint0_radial_1485_14868)"/>
</g>
<path fill-rule="evenodd" clip-rule="evenodd" d="M18.3322 39.9607L31.928 36.7813L13.4248 25.292L15.57 21.8372L34.0727 33.3261L30.8937 19.7324L34.8535 18.8063L38.0326 32.4006L49.5212 13.8986L52.976 16.0438L41.4876 34.5457L55.0829 31.3663L56.0089 35.3261L42.4139 38.5054L60.9156 49.9938L58.7704 53.4486L40.2682 41.96L43.4479 55.557L39.4881 56.483L36.3085 42.8865L24.8194 61.3894L21.3646 59.2442L32.8538 40.7411L19.2583 43.9205L18.3322 39.9607Z" fill="#BBFFBA"/>
<defs>
<filter id="filter0_f_1485_14868" x="6.41992" y="6.89258" width="61.501" height="61.502" filterUnits="userSpaceOnUse" color-interpolation-filters="sRGB">
<feFlood flood-opacity="0" result="BackgroundImageFix"/>
<feBlend mode="normal" in="SourceGraphic" in2="BackgroundImageFix" result="shape"/>
<feGaussianBlur stdDeviation="7.5" result="effect1_foregroundBlur_1485_14868"/>
</filter>
<radialGradient id="paint0_radial_1485_14868" cx="0" cy="0" r="1" gradientUnits="userSpaceOnUse" gradientTransform="translate(37.1705 37.6432) rotate(90) scale(15.7506)">
<stop stop-color="#BBFFBA"/>
<stop offset="1" stop-color="#282828"/>
</radialGradient>
</defs>
</svg>
