<svg width="68" height="31" viewBox="0 0 68 31" fill="none" xmlns="http://www.w3.org/2000/svg">
<path d="M0.670898 8.9668C1.07051 21.908 8.3345 30.5503 17.2528 30.5669C26.1712 30.5835 33.4672 21.9682 33.9149 9.02857L0.670898 8.9668Z" fill="#FBF9F5" stroke="#282828" stroke-width="1.51627" stroke-linecap="round" stroke-linejoin="round"/>
<path d="M33.8926 9.02734C34.2937 22.0187 41.5858 30.6944 50.5387 30.711C59.4915 30.7277 66.8158 22.0791 67.2653 9.08936L33.8926 9.02734Z" fill="#FBF9F5" stroke="#282828" stroke-width="1.51627" stroke-linecap="round" stroke-linejoin="round"/>
<path d="M42.6787 9.04688C44.4603 15.6007 49.085 20.2748 54.52 20.2849C59.9551 20.295 64.597 15.6381 66.403 9.09096L42.6787 9.04688Z" fill="#282828"/>
<path d="M9.86523 8.98438C11.6469 15.5382 16.2715 20.2123 21.7065 20.2224C27.1416 20.2325 31.7836 15.5756 33.5895 9.02846L9.86523 8.98438Z" fill="#282828"/>
<path d="M33.0268 5.74846L8.64062 0.523438" stroke="black" stroke-width="1.51627"/>
</svg>
