<svg width="68" height="31" viewBox="0 0 68 31" fill="none" xmlns="http://www.w3.org/2000/svg">
<path d="M1.01465 9.29102C1.41426 22.2323 8.67825 30.8745 17.5966 30.8911C26.5149 30.9077 33.811 22.2925 34.2587 9.35279L1.01465 9.29102Z" fill="#FBF9F5" stroke="#282828" stroke-width="1.51627" stroke-linecap="round" stroke-linejoin="round"/>
<path d="M34.2979 9.35156C34.6975 22.2928 41.9614 30.9351 50.8798 30.9517C59.7981 30.9682 67.0942 22.353 67.5419 9.41334L34.2979 9.35156Z" fill="#FBF9F5" stroke="#282828" stroke-width="1.51627" stroke-linecap="round" stroke-linejoin="round"/>
<path d="M43.0225 9.37109C44.8041 15.9249 49.4287 20.599 54.8638 20.6091C60.2988 20.6192 64.9408 15.9623 66.7468 9.41518L43.0225 9.37109Z" fill="#282828"/>
<path d="M10.209 9.30859C11.9906 15.8624 16.6153 20.5365 22.0503 20.5466C27.4853 20.5567 32.1273 15.8998 33.9333 9.35268L10.209 9.30859Z" fill="#282828"/>
<path d="M33.3705 6.07268L8.98438 0.847656" stroke="black" stroke-width="1.51627"/>
</svg>
