<svg width="68" height="38" viewBox="0 0 68 38" fill="none" xmlns="http://www.w3.org/2000/svg">
<path d="M0.633789 0.0351562C1.05853 13.0086 8.35709 21.6593 17.2982 21.6593C26.2392 21.6593 33.5378 13.0086 33.9625 0.0351562H0.633789Z" fill="white" stroke="#231815" stroke-width="1.51627" stroke-linecap="round" stroke-linejoin="round"/>
<path d="M34.0059 0.0351562C34.4306 13.0086 41.7292 21.6593 50.6702 21.6593C59.6113 21.6593 66.9098 13.0086 67.3346 0.0351562H34.0059Z" fill="white" stroke="#231815" stroke-width="1.51627" stroke-linecap="round" stroke-linejoin="round"/>
<path d="M42.751 0.0351562C44.5494 6.60251 49.1947 11.28 54.6437 11.28C60.0928 11.28 64.7381 6.60251 66.5365 0.0351562H42.751Z" fill="#231815"/>
<path d="M9.85547 0.0351562C11.6539 6.60251 16.2992 11.28 21.7482 11.28C27.1973 11.28 31.8425 6.60251 33.641 0.0351562H9.85547Z" fill="#231815"/>
<path d="M24.9431 26.4805L34.2814 37.311L43.6197 26.4805" stroke="black" stroke-width="1.51627" stroke-linecap="round"/>
</svg>
