<svg width="49" height="33" viewBox="0 0 49 33" fill="none" xmlns="http://www.w3.org/2000/svg">
<path d="M21.2321 32.0998C23.1104 28.7185 24.2942 24.2909 24.388 19.4248C24.5956 8.65987 19.3719 1.14581 12.7535 1.0182C6.13509 0.890584 0.625668 8.1977 0.418105 18.9626C0.324279 23.8287 1.33479 28.2987 3.08311 31.7498L21.2338 32.0998L21.2321 32.0998Z" fill="#FBF9F5" stroke="#282828" stroke-width="1.56213" stroke-linecap="round" stroke-linejoin="round"/>
<path d="M45.2018 32.5627C47.0801 29.1814 48.2639 24.7538 48.3577 19.8877C48.5653 9.12276 43.3417 1.6087 36.7232 1.48109C30.1048 1.35347 24.5954 8.66059 24.3878 19.4255C24.294 24.2916 25.3045 28.7616 27.0528 32.2127L45.2036 32.5627L45.2018 32.5627Z" fill="#FBF9F5" stroke="#282828" stroke-width="1.56213" stroke-linecap="round" stroke-linejoin="round"/>
<path d="M21.7779 32.1105C22.8929 30.1526 23.5846 27.6736 23.6368 24.9665C23.7609 18.5284 20.2349 13.2405 15.7613 13.1542C11.2877 13.068 7.56052 18.216 7.43639 24.6541C7.38416 27.363 7.97978 29.8651 9.01847 31.8645L21.7761 32.1105L21.7779 32.1105Z" fill="#282828"/>
<path d="M39.397 32.4503C40.512 30.4925 41.2037 28.0135 41.2559 25.3063C41.38 18.8683 37.854 13.5803 33.3805 13.4941C28.9069 13.4078 25.1797 18.5559 25.0555 24.994C25.0033 27.7029 25.5989 30.2049 26.6376 32.2043L39.3953 32.4503L39.397 32.4503Z" fill="#282828"/>
</svg>
