<svg height="79" viewBox="0 0 0 79" fill="none" xmlns="http://www.w3.org/2000/svg">
<path d="M1 -4.37114e-08C1 -0.552285 0.552285 -1 -4.37114e-08 -1C-0.552285 -1 -1 -0.552285 -1 4.37114e-08L1 -4.37114e-08ZM-0.707103 79.7071C-0.316579 80.0976 0.316586 80.0976 0.70711 79.7071L7.07107 73.3431C7.4616 72.9526 7.4616 72.3195 7.07107 71.9289C6.68055 71.5384 6.04738 71.5384 5.65686 71.9289L3.39138e-06 77.5858L-5.65685 71.9289C-6.04738 71.5384 -6.68054 71.5384 -7.07106 71.9289C-7.46159 72.3195 -7.46159 72.9526 -7.07106 73.3431L-0.707103 79.7071ZM-1 2.46875C-1 3.02103 -0.552285 3.46875 1.51624e-07 3.46875C0.552285 3.46875 1 3.02103 1 2.46875L-1 2.46875ZM1 7.40625C1 6.85397 0.552285 6.40625 2.80026e-07 6.40625C-0.552284 6.40625 -1 6.85397 -1 7.40625L1 7.40625ZM-0.999999 12.3438C-0.999999 12.896 -0.552284 13.3438 5.83274e-07 13.3438C0.552285 13.3437 1 12.896 1 12.3437L-0.999999 12.3438ZM1 17.2812C1 16.729 0.552285 16.2812 7.11676e-07 16.2812C-0.552284 16.2813 -0.999999 16.729 -0.999999 17.2813L1 17.2812ZM-0.999999 22.2188C-0.999999 22.771 -0.552284 23.2188 1.01492e-06 23.2188C0.552286 23.2187 1 22.771 1 22.2187L-0.999999 22.2188ZM1 27.1562C1 26.604 0.552286 26.1562 1.14333e-06 26.1562C-0.552284 26.1563 -0.999999 26.604 -0.999999 27.1563L1 27.1562ZM-0.999999 32.0938C-0.999999 32.646 -0.552283 33.0938 1.44657e-06 33.0938C0.552286 33.0937 1 32.646 1 32.0937L-0.999999 32.0938ZM1 37.0312C1 36.479 0.552286 36.0312 1.57498e-06 36.0312C-0.552283 36.0313 -0.999998 36.479 -0.999998 37.0313L1 37.0312ZM-0.999998 41.9688C-0.999998 42.521 -0.552283 42.9688 1.87822e-06 42.9688C0.552287 42.9687 1 42.521 1 41.9687L-0.999998 41.9688ZM1 46.9062C1 46.354 0.552287 45.9062 2.00663e-06 45.9062C-0.552283 45.9063 -0.999998 46.354 -0.999998 46.9063L1 46.9062ZM-0.999998 51.8438C-0.999998 52.396 -0.552282 52.8438 2.30987e-06 52.8438C0.552287 52.8437 1 52.396 1 51.8437L-0.999998 51.8438ZM1 56.7812C1 56.229 0.552287 55.7812 2.43828e-06 55.7812C-0.552282 55.7813 -0.999998 56.229 -0.999998 56.7813L1 56.7812ZM-0.999997 61.7188C-0.999997 62.271 -0.552282 62.7188 2.74152e-06 62.7188C0.552288 62.7187 1 62.271 1 61.7187L-0.999997 61.7188ZM1 66.6562C1 66.104 0.552288 65.6562 2.86993e-06 65.6562C-0.552282 65.6563 -0.999997 66.104 -0.999997 66.6563L1 66.6562ZM-0.999997 71.5938C-0.999997 72.146 -0.552282 72.5938 3.17317e-06 72.5938C0.552288 72.5937 1 72.146 1 71.5937L-0.999997 71.5938ZM1 76.5312C1 75.979 0.552288 75.5312 3.30158e-06 75.5312C-0.552281 75.5313 -0.999997 75.979 -0.999997 76.5313L1 76.5312ZM-1 4.37114e-08L-1 2.46875L1 2.46875L1 -4.37114e-08L-1 4.37114e-08ZM-1 7.40625L-0.999999 12.3438L1 12.3437L1 7.40625L-1 7.40625ZM-0.999999 17.2813L-0.999999 22.2188L1 22.2187L1 17.2812L-0.999999 17.2813ZM-0.999999 27.1563L-0.999999 32.0938L1 32.0937L1 27.1562L-0.999999 27.1563ZM-0.999998 37.0313L-0.999998 41.9688L1 41.9687L1 37.0312L-0.999998 37.0313ZM-0.999998 46.9063L-0.999998 51.8438L1 51.8437L1 46.9062L-0.999998 46.9063ZM-0.999998 56.7813L-0.999997 61.7188L1 61.7187L1 56.7812L-0.999998 56.7813ZM-0.999997 66.6563L-0.999997 71.5938L1 71.5937L1 66.6562L-0.999997 66.6563ZM-0.999997 76.5313L-0.999997 79L1 79L1 76.5312L-0.999997 76.5313Z" fill="url(#paint0_linear_1485_14655)"/>
<defs>
<linearGradient id="paint0_linear_1485_14655" x1="-0.5" y1="2.18557e-08" x2="-0.499997" y2="79" gradientUnits="userSpaceOnUse">
<stop stop-color="#4A4A4A"/>
<stop offset="1" stop-color="white"/>
</linearGradient>
</defs>
</svg>
