<svg height="69" viewBox="0 0 0 69" fill="none" xmlns="http://www.w3.org/2000/svg">
<path d="M-1 68.6445C-1 69.1968 -0.552288 69.6445 -3.01609e-06 69.6445C0.552282 69.6445 0.999997 69.1968 0.999997 68.6445L-1 68.6445ZM-1 2.53342C-1 3.0857 -0.552285 3.53342 -1.26277e-07 3.53342C0.552285 3.53342 1 3.0857 1 2.53342L-1 2.53342ZM1 6.3112C1 5.75891 0.552285 5.3112 -2.03987e-07 5.3112C-0.552285 5.3112 -1 5.75891 -1 6.3112L1 6.3112ZM-1 10.089C-1 10.6413 -0.552285 11.089 -4.56541e-07 11.089C0.552284 11.089 1 10.6413 1 10.089L-1 10.089ZM0.999999 13.8668C0.999999 13.3145 0.552284 12.8668 -5.34251e-07 12.8668C-0.552285 12.8668 -1 13.3145 -1 13.8668L0.999999 13.8668ZM-1 17.6445C-1 18.1968 -0.552286 18.6445 -7.86805e-07 18.6445C0.552284 18.6445 0.999999 18.1968 0.999999 17.6445L-1 17.6445ZM0.999999 21.4223C0.999999 20.87 0.552284 20.4223 -8.64515e-07 20.4223C-0.552286 20.4223 -1 20.87 -1 21.4223L0.999999 21.4223ZM-1 25.2001C-1 25.7524 -0.552286 26.2001 -1.11707e-06 26.2001C0.552284 26.2001 0.999999 25.7524 0.999999 25.2001L-1 25.2001ZM0.999999 28.9779C0.999999 28.4256 0.552284 27.9779 -1.19478e-06 27.9779C-0.552286 27.9779 -1 28.4256 -1 28.9779L0.999999 28.9779ZM-1 32.7556C-1 33.3079 -0.552286 33.7556 -1.44733e-06 33.7556C0.552283 33.7556 0.999999 33.3079 0.999999 32.7556L-1 32.7556ZM0.999998 36.5334C0.999998 35.9811 0.552283 35.5334 -1.52504e-06 35.5334C-0.552286 35.5334 -1 35.9811 -1 36.5334L0.999998 36.5334ZM-1 40.3112C-1 40.8635 -0.552287 41.3112 -1.7776e-06 41.3112C0.552283 41.3112 0.999998 40.8635 0.999998 40.3112L-1 40.3112ZM0.999998 44.089C0.999998 43.5367 0.552283 43.089 -1.85531e-06 43.089C-0.552287 43.089 -1 43.5367 -1 44.089L0.999998 44.089ZM-1 47.8668C-1 48.419 -0.552287 48.8668 -2.10786e-06 48.8668C0.552283 48.8668 0.999998 48.419 0.999998 47.8668L-1 47.8668ZM0.999998 51.6445C0.999998 51.0923 0.552283 50.6445 -2.18557e-06 50.6445C-0.552287 50.6445 -1 51.0923 -1 51.6445L0.999998 51.6445ZM-1 55.4223C-1 55.9746 -0.552287 56.4223 -2.43813e-06 56.4223C0.552282 56.4223 0.999998 55.9746 0.999998 55.4223L-1 55.4223ZM0.999997 59.2001C0.999997 58.6478 0.552282 58.2001 -2.51583e-06 58.2001C-0.552287 58.2001 -1 58.6478 -1 59.2001L0.999997 59.2001ZM-1 62.9779C-1 63.5302 -0.552288 63.9779 -2.76839e-06 63.9779C0.552282 63.9779 0.999997 63.5302 0.999997 62.9779L-1 62.9779ZM0.999997 66.7557C0.999997 66.2034 0.552282 65.7557 -2.8461e-06 65.7557C-0.552288 65.7557 -1 66.2034 -1 66.7557L0.999997 66.7557ZM-1 0.644531L-1 2.53342L1 2.53342L1 0.644531L-1 0.644531ZM-1 6.3112L-1 10.089L1 10.089L1 6.3112L-1 6.3112ZM-1 13.8668L-1 17.6445L0.999999 17.6445L0.999999 13.8668L-1 13.8668ZM-1 21.4223L-1 25.2001L0.999999 25.2001L0.999999 21.4223L-1 21.4223ZM-1 28.9779L-1 32.7556L0.999999 32.7556L0.999999 28.9779L-1 28.9779ZM-1 36.5334L-1 40.3112L0.999998 40.3112L0.999998 36.5334L-1 36.5334ZM-1 44.089L-1 47.8668L0.999998 47.8668L0.999998 44.089L-1 44.089ZM-1 51.6445L-1 55.4223L0.999998 55.4223L0.999998 51.6445L-1 51.6445ZM-1 59.2001L-1 62.9779L0.999997 62.9779L0.999997 59.2001L-1 59.2001ZM-1 66.7557L-1 68.6445L0.999997 68.6445L0.999997 66.7557L-1 66.7557Z" fill="#5956FF"/>
</svg>
