<svg width="1" height="69" viewBox="0 0 1 69" fill="none" xmlns="http://www.w3.org/2000/svg">
<path d="M-0.500003 68.6445C-0.500003 69.1968 -0.0522878 69.6445 0.499997 69.6445C1.05228 69.6445 1.5 69.1968 1.5 68.6445L-0.500003 68.6445ZM-0.5 2.53342C-0.5 3.0857 -0.0522849 3.53342 0.5 3.53342C1.05228 3.53342 1.5 3.0857 1.5 2.53342L-0.5 2.53342ZM1.5 6.3112C1.5 5.75891 1.05228 5.3112 0.5 5.3112C-0.052285 5.3112 -0.5 5.75891 -0.5 6.3112L1.5 6.3112ZM-0.5 10.089C-0.5 10.6413 -0.0522852 11.089 0.5 11.089C1.05228 11.089 1.5 10.6413 1.5 10.089L-0.5 10.089ZM1.5 13.8668C1.5 13.3145 1.05228 12.8668 0.499999 12.8668C-0.0522853 12.8668 -0.500001 13.3145 -0.500001 13.8668L1.5 13.8668ZM-0.500001 17.6445C-0.500001 18.1968 -0.0522856 18.6445 0.499999 18.6445C1.05228 18.6445 1.5 18.1968 1.5 17.6445L-0.500001 17.6445ZM1.5 21.4223C1.5 20.87 1.05228 20.4223 0.499999 20.4223C-0.0522856 20.4223 -0.500001 20.87 -0.500001 21.4223L1.5 21.4223ZM-0.500001 25.2001C-0.500001 25.7524 -0.0522859 26.2001 0.499999 26.2001C1.05228 26.2001 1.5 25.7524 1.5 25.2001L-0.500001 25.2001ZM1.5 28.9779C1.5 28.4256 1.05228 27.9779 0.499999 27.9779C-0.052286 27.9779 -0.500001 28.4256 -0.500001 28.9779L1.5 28.9779ZM-0.500001 32.7556C-0.500001 33.3079 -0.0522862 33.7556 0.499999 33.7556C1.05228 33.7556 1.5 33.3079 1.5 32.7556L-0.500001 32.7556ZM1.5 36.5334C1.5 35.9811 1.05228 35.5334 0.499998 35.5334C-0.0522863 35.5334 -0.500002 35.9811 -0.500002 36.5334L1.5 36.5334ZM-0.500002 40.3112C-0.500002 40.8635 -0.0522866 41.3112 0.499998 41.3112C1.05228 41.3112 1.5 40.8635 1.5 40.3112L-0.500002 40.3112ZM1.5 44.089C1.5 43.5367 1.05228 43.089 0.499998 43.089C-0.0522866 43.089 -0.500002 43.5367 -0.500002 44.089L1.5 44.089ZM-0.500002 47.8668C-0.500002 48.419 -0.0522869 48.8668 0.499998 48.8668C1.05228 48.8668 1.5 48.419 1.5 47.8668L-0.500002 47.8668ZM1.5 51.6445C1.5 51.0923 1.05228 50.6445 0.499998 50.6445C-0.052287 50.6445 -0.500002 51.0923 -0.500002 51.6445L1.5 51.6445ZM-0.500002 55.4223C-0.500002 55.9746 -0.0522872 56.4223 0.499998 56.4223C1.05228 56.4223 1.5 55.9746 1.5 55.4223L-0.500002 55.4223ZM1.5 59.2001C1.5 58.6478 1.05228 58.2001 0.499997 58.2001C-0.0522873 58.2001 -0.500003 58.6478 -0.500003 59.2001L1.5 59.2001ZM-0.500003 62.9779C-0.500003 63.5302 -0.0522875 63.9779 0.499997 63.9779C1.05228 63.9779 1.5 63.5302 1.5 62.9779L-0.500003 62.9779ZM1.5 66.7557C1.5 66.2034 1.05228 65.7557 0.499997 65.7557C-0.0522876 65.7557 -0.500003 66.2034 -0.500003 66.7557L1.5 66.7557ZM-0.5 0.644531L-0.5 2.53342L1.5 2.53342L1.5 0.644531L-0.5 0.644531ZM-0.5 6.3112L-0.5 10.089L1.5 10.089L1.5 6.3112L-0.5 6.3112ZM-0.500001 13.8668L-0.500001 17.6445L1.5 17.6445L1.5 13.8668L-0.500001 13.8668ZM-0.500001 21.4223L-0.500001 25.2001L1.5 25.2001L1.5 21.4223L-0.500001 21.4223ZM-0.500001 28.9779L-0.500001 32.7556L1.5 32.7556L1.5 28.9779L-0.500001 28.9779ZM-0.500002 36.5334L-0.500002 40.3112L1.5 40.3112L1.5 36.5334L-0.500002 36.5334ZM-0.500002 44.089L-0.500002 47.8668L1.5 47.8668L1.5 44.089L-0.500002 44.089ZM-0.500002 51.6445L-0.500002 55.4223L1.5 55.4223L1.5 51.6445L-0.500002 51.6445ZM-0.500003 59.2001L-0.500003 62.9779L1.5 62.9779L1.5 59.2001L-0.500003 59.2001ZM-0.500003 66.7557L-0.500003 68.6445L1.5 68.6445L1.5 66.7557L-0.500003 66.7557Z" fill="#5956FF"/>
</svg>
