<svg width="939" height="940" viewBox="0 0 939 940" fill="none" xmlns="http://www.w3.org/2000/svg">
<path d="M420.867 113.109C439.312 70.5331 499.688 70.5332 518.133 113.109L570.068 232.993C579.352 254.424 601.57 267.252 624.771 264.576L754.561 249.611C800.655 244.296 830.844 296.584 803.194 333.845L725.339 438.765C711.421 457.52 711.421 483.175 725.339 501.931L803.194 606.85C830.844 644.111 800.655 696.399 754.561 691.084L624.771 676.119C601.57 673.444 579.352 686.271 570.068 707.702L518.133 827.586C499.688 870.162 439.312 870.162 420.867 827.586L368.932 707.702C359.648 686.271 337.43 673.444 314.229 676.119L184.439 691.084C138.345 696.399 108.156 644.111 135.806 606.85L213.661 501.931C227.579 483.175 227.579 457.52 213.661 438.765L135.806 333.845C108.156 296.584 138.345 244.296 184.439 249.611L314.229 264.576C337.43 267.252 359.648 254.424 368.932 232.993L420.867 113.109Z" fill="#F0F0F0" fill-opacity="0.05"/>
</svg>
