<svg width="1046" height="1046" viewBox="0 0 1046 1046" fill="none" xmlns="http://www.w3.org/2000/svg">
<path d="M474.367 112.261C492.812 69.6855 553.188 69.6855 571.633 112.261L636.809 262.711C646.093 284.142 668.311 296.969 691.512 294.294L854.394 275.514C900.488 270.199 930.676 322.487 903.026 359.748L805.321 491.417C791.404 510.172 791.404 535.828 805.321 554.583L903.026 686.252C930.676 723.513 900.488 775.801 854.394 770.486L691.512 751.706C668.311 749.031 646.093 761.858 636.809 783.289L571.633 933.739C553.188 976.314 492.812 976.315 474.367 933.739L409.191 783.289C399.907 761.858 377.689 749.031 354.488 751.706L191.606 770.486C145.512 775.801 115.324 723.513 142.974 686.252L240.679 554.583C254.596 535.828 254.596 510.172 240.679 491.417L142.974 359.748C115.324 322.487 145.512 270.199 191.606 275.514L354.488 294.294C377.689 296.969 399.907 284.142 409.191 262.711L474.367 112.261Z" fill="#F0F0F0" fill-opacity="0.05"/>
</svg>
