<svg width="1472" height="1472" viewBox="0 0 1472 1472" fill="none" xmlns="http://www.w3.org/2000/svg">
<path d="M687.367 112.261C705.812 69.6854 766.188 69.6855 784.633 112.261L902.526 384.402C911.81 405.832 934.028 418.66 957.23 415.985L1251.86 382.014C1297.95 376.699 1328.14 428.987 1300.49 466.248L1123.76 704.417C1109.84 723.172 1109.84 748.828 1123.76 767.583L1300.49 1005.75C1328.14 1043.01 1297.95 1095.3 1251.86 1089.99L957.23 1056.02C934.028 1053.34 911.81 1066.17 902.526 1087.6L784.633 1359.74C766.188 1402.31 705.812 1402.31 687.367 1359.74L569.474 1087.6C560.19 1066.17 537.972 1053.34 514.77 1056.02L220.143 1089.99C174.049 1095.3 143.86 1043.01 171.51 1005.75L348.244 767.583C362.161 748.828 362.161 723.172 348.244 704.417L171.51 466.248C143.86 428.987 174.049 376.699 220.143 382.014L514.77 415.985C537.972 418.66 560.19 405.832 569.474 384.402L687.367 112.261Z" fill="#F0F0F0" fill-opacity="0.05"/>
</svg>
