<svg width="9" height="9" viewBox="0 0 9 9" fill="none" xmlns="http://www.w3.org/2000/svg">
<path fill-rule="evenodd" clip-rule="evenodd" d="M8.22867 0.815569C8.14806 0.78891 8.06541 0.762993 7.98126 0.738177C7.41543 0.57131 6.69081 0.426464 5.98654 0.477018C3.7467 0.637797 1.99563 2.1602 1.08553 3.68968C0.684925 4.36291 0.479381 5.13007 0.38413 5.76184C0.335771 6.08261 0.313396 6.38458 0.311638 6.64383C0.310006 6.88465 0.325381 7.14635 0.381678 7.36035C0.487765 7.76362 0.809384 7.93691 0.903356 7.98417C1.03648 8.05111 1.17215 8.08763 1.27089 8.10965C1.47677 8.15557 1.72331 8.18084 1.96542 8.19645C2.39086 8.22389 2.91542 8.22787 3.43693 8.22075C3.56312 7.62608 3.73017 7.04189 3.93713 6.47355C3.84454 6.47601 3.75135 6.47821 3.65813 6.48009C3.0676 6.49198 2.49717 6.49048 2.07721 6.46339L2.05478 6.46191C2.06249 6.3294 2.07735 6.18017 2.10139 6.02075C2.17613 5.52498 2.32981 4.99478 2.57796 4.57773C3.28976 3.38152 4.59645 2.31793 6.11088 2.20923C6.25551 2.19885 6.41083 2.20272 6.5718 2.2181C7.08264 1.69017 7.63771 1.22058 8.22867 0.815569ZM1.62821 6.40942C1.62815 6.40942 1.62906 6.40972 1.63105 6.41027L1.62821 6.40942Z" fill="#AEAEAE"/>
</svg>
