<svg width="9" height="9" viewBox="0 0 9 9" fill="none" xmlns="http://www.w3.org/2000/svg">
<path fill-rule="evenodd" clip-rule="evenodd" d="M0.646325 0.815569C0.726936 0.78891 0.809593 0.762993 0.89374 0.738177C1.45957 0.57131 2.18419 0.426464 2.88846 0.477018C5.1283 0.637797 6.87937 2.1602 7.78947 3.68968C8.19007 4.36291 8.39562 5.13007 8.49087 5.76184C8.53923 6.08261 8.5616 6.38458 8.56336 6.64383C8.56499 6.88465 8.54962 7.14635 8.49332 7.36035C8.38724 7.76362 8.06562 7.93691 7.97164 7.98417C7.83852 8.05111 7.70285 8.08763 7.60411 8.10965C7.39823 8.15557 7.15169 8.18084 6.90958 8.19645C6.48414 8.22389 5.95958 8.22787 5.43807 8.22075C5.31188 7.62608 5.14483 7.04189 4.93787 6.47355C5.03046 6.47601 5.12365 6.47821 5.21687 6.48009C5.8074 6.49198 6.37783 6.49048 6.79779 6.46339L6.82022 6.46191C6.81251 6.3294 6.79765 6.18017 6.77361 6.02075C6.69887 5.52498 6.54519 4.99478 6.29704 4.57773C5.58524 3.38152 4.27855 2.31793 2.76412 2.20923C2.61949 2.19885 2.46417 2.20272 2.3032 2.2181C1.79236 1.69017 1.23729 1.22058 0.646325 0.815569ZM7.24679 6.40942C7.24685 6.40942 7.24594 6.40972 7.24395 6.41027L7.24679 6.40942Z" fill="#AEAEAE"/>
</svg>
