<svg width="251" height="251" viewBox="0 0 251 251" fill="none" xmlns="http://www.w3.org/2000/svg">
<mask id="path-1-inside-1_1485_14890" fill="white">
<path fill-rule="evenodd" clip-rule="evenodd" d="M140.493 0.904297H111.02V111.01H0.914064L0.914062 140.484H111.02V250.589H140.493V140.484H250.599V111.01H140.493V0.904297Z"/>
</mask>
<path d="M111.02 0.904297V-0.4504H109.665V0.904297H111.02ZM140.493 0.904297H141.848V-0.4504H140.493V0.904297ZM111.02 111.01V112.364H112.374V111.01H111.02ZM0.914064 111.01V109.655H-0.440633V111.01H0.914064ZM0.914062 140.484H-0.440634V141.838H0.914062V140.484ZM111.02 140.484H112.374V139.129H111.02V140.484ZM111.02 250.589H109.665V251.944H111.02V250.589ZM140.493 250.589V251.944H141.848V250.589H140.493ZM140.493 140.484V139.129H139.139V140.484H140.493ZM250.599 140.484V141.838H251.954V140.484H250.599ZM250.599 111.01H251.954V109.655H250.599V111.01ZM140.493 111.01H139.139V112.364H140.493V111.01ZM111.02 2.25899H140.493V-0.4504H111.02V2.25899ZM112.374 111.01V0.904297H109.665V111.01H112.374ZM0.914064 112.364H111.02V109.655H0.914064V112.364ZM2.26876 140.484L2.26876 111.01H-0.440633L-0.440634 140.484H2.26876ZM111.02 139.129H0.914062V141.838H111.02V139.129ZM112.374 250.589V140.484H109.665V250.589H112.374ZM140.493 249.234H111.02V251.944H140.493V249.234ZM139.139 140.484V250.589H141.848V140.484H139.139ZM250.599 139.129H140.493V141.838H250.599V139.129ZM249.244 111.01V140.484H251.954V111.01H249.244ZM140.493 112.364H250.599V109.655H140.493V112.364ZM139.139 0.904297V111.01H141.848V0.904297H139.139Z" fill="#BBFFBA" mask="url(#path-1-inside-1_1485_14890)"/>
</svg>
