<svg width="71" height="71" viewBox="0 0 71 71" fill="none" xmlns="http://www.w3.org/2000/svg">
<path opacity="0.2" fill-rule="evenodd" clip-rule="evenodd" d="M54.9263 0.628906L51.6098 0.628906L51.6098 14.3141L46.2163 8.92059L43.8711 11.2657L49.2646 16.6592L35.58 16.6592L35.58 19.9757L49.5973 19.9757L44.0054 25.5677L46.3505 27.9128L51.6098 22.6535L51.6098 36.0052L54.9263 36.0052L54.9263 22.3209L60.5189 27.9135L62.8641 25.5684L57.2714 19.9757L70.9563 19.9757L70.9563 16.6592L57.6041 16.6592L62.9983 11.2651L60.6531 8.91992L54.9263 14.6467L54.9263 0.628906ZM22.7842 22.4567L27.3003 22.4567L27.3003 41.5452L35.0985 33.747L38.2919 36.9404L30.9473 44.285L49.1281 44.285L49.1281 48.8011L30.4943 48.8011L38.1091 56.4158L34.9157 59.6092L27.3003 51.9939L27.3003 70.6287L22.7842 70.6287L22.7842 52.4481L15.6226 59.6097L12.4292 56.4163L20.0444 48.8011L0.956055 48.8011L0.956055 44.285L19.5914 44.285L12.2464 36.9399L15.4397 33.7465L22.7842 41.091L22.7842 22.4567Z" fill="#FBF9F5"/>
</svg>
