<svg width="249" height="250" viewBox="0 0 249 250" fill="none" xmlns="http://www.w3.org/2000/svg">
<path d="M89.246 139.532L89.5996 139.885L90.4531 139.032H89.246V139.532ZM52.0708 176.707L51.7173 176.353L51.3637 176.707L51.7173 177.06L52.0708 176.707ZM0.270508 139.532H-0.229492V140.032H0.270508V139.532ZM0.270509 110.289V109.789H-0.229491L-0.229491 110.289H0.270509ZM89.246 110.289V110.789H90.4531L89.5995 109.935L89.246 110.289ZM52.0708 73.1134L51.7173 72.7599L51.3637 73.1134L51.7173 73.467L52.0708 73.1134ZM72.7488 52.4355L73.1024 52.0819L72.7488 51.7284L72.3953 52.0819L72.7488 52.4355ZM109.921 89.6076L109.567 89.9612L110.421 90.8147V89.6076H109.921ZM109.921 0.642578V0.142578H109.421V0.642578H109.921ZM139.164 0.642578H139.664V0.142578H139.164V0.642578ZM139.164 89.6137H138.664V90.8208L139.518 89.9672L139.164 89.6137ZM176.341 52.4364L176.695 52.0829L176.341 51.7293L175.988 52.0829L176.341 52.4364ZM197.019 73.1144L197.373 73.4679L197.726 73.1144L197.373 72.7608L197.019 73.1144ZM159.845 110.289L159.491 109.935L158.638 110.789H159.845V110.289ZM248.814 110.289H249.314V109.789H248.814V110.289ZM248.814 139.532V140.032H249.314V139.532H248.814ZM159.845 139.532V139.032H158.638L159.491 139.885L159.845 139.532ZM197.019 176.706L197.373 177.059L197.726 176.706L197.373 176.352L197.019 176.706ZM176.341 197.384L175.988 197.737L176.341 198.091L176.695 197.737L176.341 197.384ZM139.164 160.207L139.518 159.853L138.664 159V160.207H139.164ZM139.164 249.186V249.686H139.664V249.186H139.164ZM109.921 249.186H109.421V249.686H109.921V249.186ZM109.921 160.213H110.421V159.006L109.567 159.859L109.921 160.213ZM72.7488 197.385L72.3952 197.738L72.7488 198.092L73.1024 197.738L72.7488 197.385ZM88.8925 139.178L51.7173 176.353L52.4244 177.06L89.5996 139.885L88.8925 139.178ZM0.270508 140.032H89.246V139.032H0.270508V140.032ZM-0.229491 110.289L-0.229492 139.532H0.770508L0.770509 110.289H-0.229491ZM89.246 109.789H0.270509V110.789H89.246V109.789ZM89.5995 109.935L52.4244 72.7599L51.7173 73.467L88.8924 110.642L89.5995 109.935ZM52.4244 73.467L73.1024 52.789L72.3953 52.0819L51.7173 72.7599L52.4244 73.467ZM72.3953 52.789L109.567 89.9612L110.275 89.2541L73.1024 52.0819L72.3953 52.789ZM109.421 0.642578V89.6076H110.421V0.642578H109.421ZM139.164 0.142578H109.921V1.14258H139.164V0.142578ZM139.664 89.6137V0.642578H138.664V89.6137H139.664ZM175.988 52.0829L138.81 89.2601L139.518 89.9672L176.695 52.79L175.988 52.0829ZM197.373 72.7608L176.695 52.0829L175.988 52.79L196.666 73.4679L197.373 72.7608ZM160.199 110.642L197.373 73.4679L196.666 72.7608L159.491 109.935L160.199 110.642ZM248.814 109.789H159.845V110.789H248.814V109.789ZM249.314 139.532V110.289H248.314V139.532H249.314ZM159.845 140.032H248.814V139.032H159.845V140.032ZM159.491 139.885L196.666 177.059L197.373 176.352L160.199 139.178L159.491 139.885ZM196.666 176.352L175.988 197.03L176.695 197.737L197.373 177.059L196.666 176.352ZM176.695 197.03L139.518 159.853L138.81 160.56L175.988 197.737L176.695 197.03ZM139.664 249.186V160.207H138.664V249.186H139.664ZM109.921 249.686H139.164V248.686H109.921V249.686ZM109.421 160.213V249.186H110.421V160.213H109.421ZM73.1024 197.738L110.275 160.566L109.567 159.859L72.3952 197.031L73.1024 197.738ZM51.7173 177.06L72.3952 197.738L73.1024 197.031L52.4244 176.353L51.7173 177.06Z" fill="#BBFFBA"/>
</svg>
