<svg width="251" height="251" viewBox="0 0 251 251" fill="none" xmlns="http://www.w3.org/2000/svg">
<mask id="path-1-inside-1_1485_14896" fill="white">
<path fill-rule="evenodd" clip-rule="evenodd" d="M198.753 73.6391L177.052 51.9375L125.445 103.545L73.8372 51.9372L52.1356 73.6388L103.743 125.246L52.1355 176.854L73.8371 198.555L125.445 146.948L177.052 198.555L198.753 176.853L147.146 125.246L198.753 73.6391Z"/>
</mask>
<path d="M177.052 51.9375L178.01 50.9796L177.052 50.0217L176.094 50.9796L177.052 51.9375ZM198.753 73.6391L199.711 74.597L200.669 73.6391L199.711 72.6812L198.753 73.6391ZM125.445 103.545L124.487 104.503L125.445 105.46L126.402 104.503L125.445 103.545ZM73.8372 51.9372L74.7951 50.9793L73.8372 50.0214L72.8793 50.9793L73.8372 51.9372ZM52.1356 73.6388L51.1777 72.6809L50.2197 73.6388L51.1777 74.5968L52.1356 73.6388ZM103.743 125.246L104.701 126.204L105.659 125.246L104.701 124.288L103.743 125.246ZM52.1355 176.854L51.1776 175.896L50.2197 176.854L51.1776 177.812L52.1355 176.854ZM73.8371 198.555L72.8792 199.513L73.8371 200.471L74.795 199.513L73.8371 198.555ZM125.445 146.948L126.402 145.99L125.445 145.032L124.487 145.99L125.445 146.948ZM177.052 198.555L176.094 199.513L177.052 200.471L178.01 199.513L177.052 198.555ZM198.753 176.853L199.711 177.811L200.669 176.854L199.711 175.896L198.753 176.853ZM147.146 125.246L146.188 124.288L145.23 125.246L146.188 126.204L147.146 125.246ZM176.094 52.8954L197.795 74.597L199.711 72.6812L178.01 50.9796L176.094 52.8954ZM126.402 104.503L178.01 52.8954L176.094 50.9796L124.487 102.587L126.402 104.503ZM72.8793 52.8952L124.487 104.503L126.402 102.587L74.7951 50.9793L72.8793 52.8952ZM53.0935 74.5968L74.7951 52.8952L72.8793 50.9793L51.1777 72.6809L53.0935 74.5968ZM104.701 124.288L53.0935 72.6809L51.1777 74.5968L102.785 126.204L104.701 124.288ZM53.0934 177.812L104.701 126.204L102.785 124.288L51.1776 175.896L53.0934 177.812ZM74.795 197.597L53.0934 175.896L51.1776 177.812L72.8792 199.513L74.795 197.597ZM124.487 145.99L72.8792 197.597L74.795 199.513L126.402 147.906L124.487 145.99ZM178.01 197.597L126.402 145.99L124.487 147.906L176.094 199.513L178.01 197.597ZM197.795 175.896L176.094 197.597L178.01 199.513L199.711 177.811L197.795 175.896ZM146.188 126.204L197.795 177.811L199.711 175.896L148.104 124.288L146.188 126.204ZM197.795 72.6812L146.188 124.288L148.104 126.204L199.711 74.597L197.795 72.6812Z" fill="#BBFFBA" mask="url(#path-1-inside-1_1485_14896)"/>
</svg>
