<svg width="97" height="111" viewBox="0 0 97 111" fill="none" xmlns="http://www.w3.org/2000/svg">
<path d="M53.2055 3.0641L62.6687 24.5363C63.5683 26.5778 65.6876 27.8032 67.9039 27.5618L91.2208 25.0244C95.6429 24.5442 98.5333 29.5481 95.9052 33.1404L82.0514 52.0752C80.7348 53.8752 80.7348 56.3234 82.0514 58.1235L95.9052 77.0583C98.5333 80.6506 95.6455 85.6545 91.2208 85.1743L67.9039 82.6369C65.685 82.3955 63.5683 83.6183 62.6687 85.6624L53.2055 107.135C51.4115 111.207 45.6334 111.207 43.8394 107.135L34.3762 85.6624C33.4766 83.6209 31.3574 82.3955 29.1411 82.6369L5.8241 85.1743C1.40201 85.6545 -1.48835 80.6506 1.13973 77.0583L14.9935 58.1235C16.3102 56.3234 16.3102 53.8752 14.9935 52.0752L1.13711 33.1378C-1.49097 29.5455 1.39677 24.5415 5.82148 25.0217L29.1384 27.5591C31.3574 27.8006 33.474 26.5778 34.3736 24.5337L43.8394 3.0641C45.6334 -1.00835 51.4115 -1.00835 53.2055 3.0641Z" fill="#BBFFBA" stroke="#231815" stroke-width="1.51627" stroke-miterlimit="10" stroke-linejoin="round"/>
</svg>
