<svg width="98" height="111" viewBox="0 0 98 111" fill="none" xmlns="http://www.w3.org/2000/svg">
<path d="M53.6549 3.47698L63.0542 24.9122C63.9478 26.9501 66.0594 28.1763 68.2705 27.9397L91.5329 25.4519C95.9447 24.9811 98.8184 29.9777 96.1904 33.556L82.3367 52.417C81.02 54.2101 81.0155 56.652 82.3255 58.45L96.109 77.3623C98.7237 80.9503 95.834 85.9362 91.4214 85.4491L68.1684 82.8749C65.9556 82.63 63.8421 83.8457 62.9409 85.883L53.462 107.283C51.665 111.342 45.9016 111.331 44.1197 107.266L34.7203 85.8305C33.8268 83.7926 31.7152 82.5663 29.5041 82.803L6.24164 85.2908C1.82989 85.7616 -1.04385 80.7649 1.58421 77.1867L15.4379 58.3257C16.7546 56.5326 16.7591 54.0907 15.4491 52.2927L1.663 33.3777C-0.951741 29.7897 1.93793 24.8038 6.35052 25.291L29.6035 27.8652C31.8164 28.1101 33.9299 26.8943 34.831 24.8571L44.3126 3.45962C46.1096 -0.599161 51.873 -0.588451 53.6549 3.47698Z" fill="#5956FF" stroke="#282828" stroke-width="1.51627" stroke-miterlimit="10" stroke-linejoin="round"/>
</svg>
