<svg width="98" height="111" viewBox="0 0 98 111" fill="none" xmlns="http://www.w3.org/2000/svg">
<path d="M53.4633 3.0641L62.9265 24.5363C63.8262 26.5778 65.9454 27.8032 68.1617 27.5618L91.4786 25.0244C95.9007 24.5442 98.7911 29.5481 96.163 33.1404L82.3092 52.0752C80.9926 53.8752 80.9926 56.3234 82.3092 58.1235L96.163 77.0583C98.7911 80.6506 95.9034 85.6545 91.4786 85.1743L68.1617 82.6369C65.9428 82.3955 63.8262 83.6183 62.9265 85.6624L53.4633 107.135C51.6693 111.207 45.8912 111.207 44.0972 107.135L34.634 85.6624C33.7344 83.6209 31.6152 82.3955 29.3989 82.6369L6.08192 85.1743C1.65982 85.6545 -1.23053 80.6506 1.39754 77.0583L15.2513 58.1235C16.568 56.3234 16.568 53.8752 15.2513 52.0752L1.39492 33.1378C-1.23316 29.5455 1.65458 24.5415 6.07929 25.0217L29.3963 27.5591C31.6152 27.8006 33.7318 26.5778 34.6314 24.5337L44.0972 3.0641C45.8912 -1.00835 51.6693 -1.00835 53.4633 3.0641Z" fill="#BBFFBA" stroke="#231815" stroke-width="1.51627" stroke-miterlimit="10" stroke-linejoin="round"/>
</svg>
