<svg width="98" height="111" viewBox="0 0 98 111" fill="none" xmlns="http://www.w3.org/2000/svg">
<path d="M53.8896 3.15154L63.3145 24.645C64.2105 26.6885 66.3278 27.918 68.5449 27.6807L91.8706 25.1862C96.2943 24.7142 99.1759 29.7244 96.5407 33.3123L82.6493 52.2246C81.3291 54.0225 81.3245 56.4712 82.6381 58.274L96.459 77.2377C99.0809 80.8355 96.1833 85.835 91.7588 85.3465L68.4425 82.7653C66.2237 82.5197 64.1044 83.7388 63.2009 85.7815L53.6962 107.24C51.8943 111.31 46.1152 111.299 44.3284 107.222L34.9036 85.729C34.0076 83.6855 31.8902 82.4559 29.6731 82.6932L6.34745 85.1877C1.92371 85.6598 -0.95784 80.6496 1.67736 77.0616L15.5687 58.1493C16.8889 56.3514 16.8935 53.9028 15.58 52.1L1.75637 33.1336C-0.865479 29.5358 2.03205 24.5364 6.45663 25.0249L29.7729 27.606C31.9917 27.8516 34.111 26.6326 35.0145 24.5898L44.5219 3.13413C46.3237 -0.935677 52.1028 -0.924938 53.8896 3.15154Z" fill="#5956FF" stroke="#282828" stroke-width="1.51627" stroke-miterlimit="10" stroke-linejoin="round"/>
</svg>
