<svg width="98" height="111" viewBox="0 0 98 111" fill="none" xmlns="http://www.w3.org/2000/svg">
<path d="M53.8297 3.47698L63.229 24.9122C64.1226 26.9501 66.2342 28.1763 68.4453 27.9397L91.7077 25.4519C96.1195 24.9811 98.9932 29.9777 96.3652 33.556L82.5115 52.417C81.1948 54.2101 81.1903 56.652 82.5003 58.45L96.2838 77.3623C98.8985 80.9503 96.0088 85.9362 91.5962 85.4491L68.3432 82.8749C66.1304 82.63 64.0169 83.8457 63.1157 85.883L53.6368 107.283C51.8398 111.342 46.0764 111.331 44.2945 107.266L34.8951 85.8305C34.0016 83.7926 31.89 82.5663 29.6789 82.803L6.41644 85.2908C2.00469 85.7616 -0.869047 80.7649 1.75901 77.1867L15.6127 58.3257C16.9294 56.5326 16.9339 54.0907 15.6239 52.2927L1.83781 33.3777C-0.776936 29.7897 2.11274 24.8038 6.52532 25.291L29.7783 27.8652C31.9912 28.1101 34.1047 26.8943 35.0058 24.8571L44.4874 3.45962C46.2844 -0.599161 52.0478 -0.588451 53.8297 3.47698Z" fill="#5956FF" stroke="#282828" stroke-width="1.51627" stroke-miterlimit="10" stroke-linejoin="round"/>
</svg>
