<svg width="98" height="111" viewBox="0 0 98 111" fill="none" xmlns="http://www.w3.org/2000/svg">
<path d="M54.0317 3.0641L63.4949 24.5363C64.3945 26.5778 66.5138 27.8032 68.73 27.5618L92.047 25.0244C96.4691 24.5442 99.3595 29.5481 96.7314 33.1404L82.8776 52.0752C81.5609 53.8752 81.5609 56.3234 82.8776 58.1235L96.7314 77.0583C99.3595 80.6506 96.4717 85.6545 92.047 85.1743L68.73 82.6369C66.5111 82.3955 64.3945 83.6183 63.4949 85.6624L54.0317 107.135C52.2377 111.207 46.4596 111.207 44.6656 107.135L35.2024 85.6624C34.3028 83.6209 32.1835 82.3955 29.9672 82.6369L6.65028 85.1743C2.22818 85.6545 -0.662175 80.6506 1.9659 77.0583L15.8197 58.1235C17.1364 56.3234 17.1364 53.8752 15.8197 52.0752L1.96328 33.1378C-0.664798 29.5455 2.22294 24.5415 6.64765 25.0217L29.9646 27.5591C32.1835 27.8006 34.3002 26.5778 35.1998 24.5337L44.6656 3.0641C46.4596 -1.00835 52.2377 -1.00835 54.0317 3.0641Z" fill="#BBFFBA" stroke="#231815" stroke-width="1.51627" stroke-miterlimit="10" stroke-linejoin="round"/>
</svg>
