<svg width="18" height="14" viewBox="0 0 18 14" fill="none" xmlns="http://www.w3.org/2000/svg">
<path fill-rule="evenodd" clip-rule="evenodd" d="M9.1006 3.30222C11.5877 3.30232 13.9797 4.22441 15.7822 5.87789C15.918 6.00554 16.1349 6.00393 16.2686 5.87428L17.5661 4.61081C17.6338 4.54505 17.6715 4.45597 17.671 4.36329C17.6704 4.27061 17.6316 4.18197 17.5631 4.11697C12.8321 -0.257741 5.36837 -0.257741 0.637353 4.11697C0.568821 4.18192 0.529937 4.27054 0.529305 4.36322C0.528673 4.4559 0.566345 4.545 0.633986 4.61081L1.93185 5.87428C2.06545 6.00413 2.28257 6.00574 2.41822 5.87789C4.22096 4.2243 6.61324 3.30221 9.1006 3.30222ZM9.09724 7.5225C10.4546 7.52241 11.7634 8.03415 12.7696 8.95828C12.9056 9.08943 13.12 9.08659 13.2527 8.95187L14.5399 7.63256C14.6077 7.56336 14.6454 7.46948 14.6444 7.37193C14.6434 7.27438 14.6039 7.1813 14.5347 7.11351C11.4709 4.22266 6.72618 4.22266 3.66234 7.11351C3.59314 7.1813 3.55365 7.27443 3.55274 7.37201C3.55183 7.46959 3.58958 7.56346 3.65751 7.63256L4.94442 8.95187C5.07708 9.08659 5.29144 9.08943 5.42753 8.95828C6.43298 8.03476 7.74082 7.52307 9.09724 7.5225ZM11.6217 10.316C11.6236 10.4214 11.5865 10.523 11.5192 10.5968L9.34257 13.0515C9.27876 13.1236 9.19177 13.1642 9.101 13.1642C9.01023 13.1642 8.92324 13.1236 8.85943 13.0515L6.6824 10.5968C6.61515 10.5229 6.57815 10.4213 6.58015 10.316C6.58214 10.2106 6.62295 10.1108 6.69294 10.0402C8.08304 8.72634 10.119 8.72634 11.5091 10.0402C11.579 10.1109 11.6197 10.2107 11.6217 10.316Z" fill="white"/>
</svg>
