<svg width="18" height="14" viewBox="0 0 18 14" fill="none" xmlns="http://www.w3.org/2000/svg">
<path fill-rule="evenodd" clip-rule="evenodd" d="M9.10158 3.30222C11.5887 3.30232 13.9807 4.22441 15.7832 5.87789C15.9189 6.00554 16.1359 6.00393 16.2696 5.87428L17.5671 4.61081C17.6348 4.54505 17.6725 4.45597 17.6719 4.36329C17.6714 4.27061 17.6326 4.18197 17.5641 4.11697C12.8331 -0.257741 5.36934 -0.257741 0.638329 4.11697C0.569797 4.18192 0.530913 4.27054 0.530281 4.36322C0.529649 4.4559 0.567322 4.545 0.634962 4.61081L1.93283 5.87428C2.06642 6.00413 2.28355 6.00574 2.4192 5.87789C4.22194 4.2243 6.61422 3.30221 9.10158 3.30222ZM9.09822 7.5225C10.4555 7.52241 11.7644 8.03415 12.7705 8.95828C12.9066 9.08943 13.121 9.08659 13.2536 8.95187L14.5409 7.63256C14.6087 7.56336 14.6463 7.46948 14.6454 7.37193C14.6444 7.27438 14.6049 7.1813 14.5357 7.11351C11.4719 4.22266 6.72715 4.22266 3.66332 7.11351C3.59411 7.1813 3.55463 7.27443 3.55372 7.37201C3.55281 7.46959 3.59056 7.56346 3.65849 7.63256L4.9454 8.95187C5.07805 9.08659 5.29242 9.08943 5.4285 8.95828C6.43396 8.03476 7.7418 7.52307 9.09822 7.5225ZM11.6226 10.316C11.6246 10.4214 11.5875 10.523 11.5202 10.5968L9.34354 13.0515C9.27974 13.1236 9.19274 13.1642 9.10197 13.1642C9.01121 13.1642 8.92421 13.1236 8.86041 13.0515L6.68338 10.5968C6.61613 10.5229 6.57913 10.4213 6.58112 10.316C6.58312 10.2106 6.62393 10.1108 6.69391 10.0402C8.08401 8.72634 10.1199 8.72634 11.51 10.0402C11.58 10.1109 11.6207 10.2107 11.6226 10.316Z" fill="white"/>
</svg>
